<svg version="1" xmlns="http://www.w3.org/2000/svg" width="26" height="26" viewBox="0 0 900 1030"><g fill="#b71c1c"><path d="M224.6 3c-19.2 6.6-32.7 17.3-55.1 44-12.8 15.3-16.3 18.8-33.5 33.5-30.8 26.3-41.8 41.4-46.4 63.7-5.8 28.3 4 56.1 30.9 86.9 21.1 24.2 47.6 43 92.5 65.4 45 22.5 109.3 46.4 171.2 63.7l4.7 1.3-51.2 27.1-51.2 27.1-.5 79.6-.5 79.6-45-22.9-45-22.8-.3-75.5-.2-75.4 32.7-13.3c18.1-7.3 33.2-13.7 33.7-14.1.5-.5-.8-1.6-3-2.4-47.1-19.2-84.4-38.2-112.4-57.2-16.3-11.2-25.3-18.6-37.3-30.5L99 251l-39.8 13.1C37.4 271.3 17.9 278 16 279c-4.6 2.4-11.6 10-14.1 15.3-1.8 4-1.9 7.7-1.9 83.3v79l2.6 5.2c1.4 2.9 4.7 7 7.2 9.3 3.4 2.9 26.5 15.1 82.7 43.3 243.2 122.2 305.8 153.8 322.2 162.3 21.2 10.9 27.5 13.3 35.3 13.3 7.5 0 14.1-2.4 31.3-11.3 12.8-6.7 70.5-35.8 326.2-164.3 56.2-28.3 79.3-40.3 82.7-43.3 2.5-2.3 5.8-6.4 7.2-9.3l2.6-5.2v-79c0-75.6-.1-79.3-1.9-83.3-2.5-5.3-9.5-12.9-14.1-15.3-1.9-.9-21.4-7.7-43.2-14.9l-39.7-13.2-9.8 9.9c-16.6 16.6-36.7 31.4-63.2 46.6-22.4 12.9-57.6 29.7-81.8 39.1-4 1.6-7.3 3.3-7.3 3.9 0 .6 14.5 7 32.3 14.2l32.2 13 .3 76 .2 75.9-43.8 22.2C636 564 616 574 615.7 574c-.4 0-.7-35.5-.7-78.8v-78.8L563 389l-52-27.4 4.8-1.4c63.9-17.8 126.8-41.4 174.2-65.2 41.5-21 69.5-40.9 89.5-63.9 26.9-30.9 36.7-58.6 30.9-86.9-4.4-21.4-15.7-37.4-42.8-60.4-18.7-16-23.6-20.8-34.9-34.3C708 20.1 695 9.7 674.9 2.9c-9.2-3.1-9.5-3.1-25.3-2.7-13.2.4-17.3.9-22.6 2.7-18.6 6.4-35.8 17.9-55 37.1-13.7 13.6-19.6 20.8-30.7 37.5-24 36.1-50.1 94-72.3 160.5-7.7 22.9-18 56.7-18 58.9 0 3.7-2.1-1.5-6-14.9-26.6-91.5-63.3-174.9-96.1-218.6-19.1-25.4-45.7-48-67.3-57.1C269.5 1.2 263.3 0 247.5 0c-12.9 0-14.7.3-22.9 3zm29.6 45.1c7.1 1.5 15.9 5.9 24.3 12.2 9.7 7.1 24.8 22.5 32.8 33.2 23.2 31.3 48.5 85.4 71.6 153 7.2 21.1 21.1 65.9 21.1 68.1 0 1.5-20.9-4.6-57-16.5-97.8-32.5-158.8-63.9-188.8-97.3-20.2-22.4-26-38.3-19.4-53.1 3.2-7.1 10.6-15 27-29.1 18.1-15.5 28.3-25.7 44.2-44.5 14.4-16.9 21.2-22.4 31.5-25.7 5.1-1.6 6.3-1.6 12.7-.3zm404.8.5c10.4 3.1 15.7 7.6 32.3 26.9 16.7 19.5 23.9 26.7 41.9 42.1 17.7 15.1 23.7 21.5 27.5 29.3 3.6 7.3 4.1 14.2 1.5 22.8-3.6 11.8-16.9 29.3-33.5 44-23.4 20.9-73.3 47-131.2 68.8-36.1 13.6-101.5 34.4-101.5 32.3 0-4.5 20.2-67.2 31-96.4 26.2-70.3 51.2-116.5 77-142.4 16-16.1 28.5-24.6 40.5-27.6 6.8-1.7 8.3-1.7 14.5.2z"/><path d="M435 140.6c-4.1 1.4-7.6 2.7-7.8 2.9-.2.2 4.1 11.5 9.6 25.2 5.5 13.6 10.5 26.5 11.1 28.5.7 2.1 1.6 3.8 2 3.8.4 0 2.9-5.7 5.6-12.8 2.6-7 7.6-19.6 11.1-28 3.5-8.4 6.4-15.7 6.4-16.1 0-.5-3.8-2-8.4-3.5-10.8-3.3-19.3-3.3-29.6 0zM43 522.7v133.4c0 148.8-.6 137.7 7.6 146.8 3.5 3.9 10.4 8.4 34.7 22.4 16.6 9.6 55 31.7 85.2 49.2 67.7 39.1 135 78 206.5 119.3 30 17.3 56.8 32.5 59.5 33.8 4 1.9 6.7 2.4 13.7 2.4 4.8 0 10-.5 11.5-1.2s41.5-23.6 88.8-50.9c125.4-72.3 239.3-138.1 268.5-155 14-8.1 27.2-16.4 29.2-18.4s5-6.2 6.5-9.3l2.8-5.7.3-133.8c.1-73.5 0-133.7-.3-133.7s-14.7 7.1-32 15.7L794 553.5v210.1l-41.7 24.1c-201.2 116-268 154.7-269 155.5-1 .8-1.3-22.4-1.3-115.6 0-79.6-.3-116.6-1-116.6-.6 0-3.2 1.1-5.8 2.4-15.6 7.9-35.4 7.9-51.3 0-2.6-1.3-4.9-2-5.3-1.7-.3.4-.6 52.6-.6 116.1 0 91.9-.3 115.3-1.2 114.9-.7-.3-49-28-107.3-61.7-58.3-33.6-127.9-73.9-154.7-89.3L106 763.5v-210L75.3 538c-17-8.5-31.1-15.6-31.5-15.8-.5-.2-.8 0-.8.5z"/></g></svg>