<svg version="1" xmlns="http://www.w3.org/2000/svg" width="32" height="32" viewBox="0 0 512 512"><g fill="#b71c1c"><path d="M68.6 3.3c-4.1 3.9-5 6.8-4.4 14.3.4 4.5 1 6.1 3.8 8.9 1.9 2 5 4 7 4.5 4.8 1.4 357.2 1.4 362 0 2-.5 5.1-2.6 7-4.5 3-3.1 3.5-4.3 3.8-9.9.5-7.2-1.1-11.2-5.7-14.5L439.2 0H72.1l-3.5 3.3zM31.7 110.5C14.3 145.4 0 174.5 0 175c0 .7 86.4 1 256 1s256-.3 256-1c0-.5-14.3-29.6-31.7-64.5L448.5 47h-385l-31.8 63.5zM133 74c1.1 1.1 2 3.3 2 5 0 3.3-31.7 67.7-34.5 70-4.2 3.4-11.5.2-11.5-5.2 0-3.1 30.9-65.9 34.3-69.6 2.6-2.8 7-2.9 9.7-.2zm64 0c1.1 1.1 2 3.3 2 5 0 3.3-31.7 67.7-34.5 70-4.2 3.4-11.5.2-11.5-5.2 0-3.1 30.9-65.9 34.3-69.6 2.6-2.8 7-2.9 9.7-.2zm63.9-.1c2.9 2.9 3.3 7.8 2.9 41.3-.3 30.1-.3 30.8-2.5 32.9-1.3 1.4-3.4 2.2-5.3 2.2s-4-.8-5.3-2.2c-2.2-2.1-2.2-2.8-2.5-32.9-.4-34 0-38.3 3.1-41.2 2.7-2.5 7.1-2.6 9.6-.1zm60.3-.7c3 2.3 37.8 67.3 37.8 70.5 0 1.7-.9 3.8-2 4.8-2.5 2.2-7.5 2.4-9.6.3-3.2-3.2-37.4-67.1-37.4-69.9 0-5.4 7-8.9 11.2-5.7zm66.9.1c2.7 2 34.9 67.3 34.9 70.6 0 5.8-7.2 8.7-11.8 4.8-2.6-2.1-34.2-66.6-34.2-69.7 0-5.5 6.8-9 11.1-5.7zM.2 206.7c.6 18.4 2.1 23.9 9.7 35.6 7.6 11.5 17.9 19.9 30.5 24.8l7.1 2.8.3 104.5L48 479H29.7c-15.8 0-18.7.2-21.7 1.9-5.4 2.8-8 7.4-8 14.1 0 6.3 2.2 10.6 7.3 14.4l2.8 2.1 243.6.3c158.2.1 244.8-.1 247.2-.8 2-.5 5.2-2.6 7.1-4.5 3.1-3.2 3.5-4.2 3.8-10.3.3-5.7 0-7.2-2-10.1-4.4-6.4-7-7.1-27.5-7.1H464V269.5l6.1-1.9c16.3-5.1 31.5-20.1 38.5-38.1 2.5-6.3 2.8-8.6 3.2-22.8l.4-15.7H-.2l.4 15.7zM129 220.8c0 3.9 4.4 14.6 8.9 21.5 7.6 11.5 17.9 19.9 30.5 24.8l7.1 2.8.3 104.5.2 104.6H80V269.5l6.1-1.9c11.5-3.6 24.5-13.8 31.8-24.9 4.1-6.4 9.1-18.2 9.1-21.7 0-1.1.5-2 1-2 .6 0 1 .8 1 1.8zm128.7 3.4c3.8 16.1 17.8 33.2 33.4 40.6 10.9 5.2 17.2 6.6 28.9 6.6 11.6 0 18-1.4 29-6.6 15.6-7.4 29.4-24.3 33.2-40.6 1.2-5.1 2.8-7 2.8-3.4 0 3.9 4.4 14.6 8.9 21.5 7.6 11.5 17.9 19.9 30.5 24.8l7.1 2.8.3 104.5.2 104.6H192V272.2l5.8-.7c9.4-1.1 14.2-2.5 23.2-6.7 15.6-7.4 29.4-24.3 33.2-40.6.7-2.8 1.5-5.2 1.8-5.2.3 0 1.1 2.4 1.7 5.2z"/><path d="M136 320.9c-5.3 2.8-8 7.4-8 13.8 0 6 1.7 10.1 5.5 13.1l2.5 2v17.6c0 17.3 0 17.6-2.4 19.1-4.1 2.7-5.9 7.4-5.4 14.3.4 5.4.9 6.7 3.8 9.7 6.6 6.8 16.4 7 23.3.5 3.7-3.4 4.1-4.2 4.5-10 .5-7.1-1.2-11.8-5.4-14.5-2.4-1.5-2.4-1.8-2.4-19.1v-17.6l2.5-2c3.8-3 5.5-7.1 5.5-13.1 0-9.3-6.5-15.7-16-15.7-2.5 0-6.1.8-8 1.9zm155.2 1.4C279 334.5 269 345 269 345.5c0 1.3 10.2 11.5 11.5 11.5 1.3 0 45.5-44.2 45.5-45.5 0-1.3-10.2-11.5-11.5-11.5-.6 0-11 10-23.3 22.3zm22.5 22.5C289.1 369.4 269 390 269 390.5c0 .6 2.6 3.6 5.8 6.8l5.7 5.7 45.3-45.3c24.8-24.8 45.2-45.7 45.2-46.2 0-1.3-10.2-11.5-11.5-11.5-.6 0-21.1 20.1-45.8 44.8zm22.8 23.2l-23 23 6 6 6 6 22.7-22.7c12.6-12.5 22.8-23.3 22.8-23.8 0-1-10.1-11.5-11-11.5-.3 0-10.9 10.3-23.5 23z"/></g></svg>