<svg version="1" xmlns="http://www.w3.org/2000/svg" width="31" height="24" viewBox="0 0 4096 4096"><path d="M768 2047.5V3013h2560V1082H768v965.5zm2220.9-736.8c-27.3 27.4-214.9 216.3-416.9 419.8-458.3 461.7-445.2 448.6-455.8 454.9-9.7 5.7-23.1 11-35.1 13.7-11.2 2.6-34 3.6-45.2 2-20.5-2.9-40.5-10.7-53.9-20.9-3.6-2.7-40.3-39.1-81.5-80.8-78.1-78.9-790.6-800.5-814.4-824.7l-13.5-13.7h1965.9l-49.6 49.7zm-1699.1 426.1c166.9 168.9 303.3 307.4 303.1 307.9-.1.4-143.8 147.4-319.3 326.6-175.5 179.2-320.8 327.6-322.8 329.9l-3.8 4.1.1-657.9v-657.9l19.7 20.1c10.8 11.1 156.2 158.3 323 327.2zm1859.2 318v649.9l-20.3-20.6c-11.2-11.3-124.3-127-251.3-257.1-127-130.1-261.9-268.2-299.7-306.9-37.8-38.7-68.6-70.7-68.5-71.2.2-.4 62-62.7 137.3-138.6 75.4-75.8 219.2-220.5 319.5-321.6 100.4-101 182.6-183.7 182.7-183.7.2 0 .3 292.4.3 649.8zm-1283.5 262.5c65 52.2 152.7 74.6 237.5 60.6 48.2-8 91.9-26.5 131-55.6 9.4-7 23.9-21 79.8-77.1l68.4-68.5 5.3 5.4c2.9 3 109.1 111.8 236.1 241.9 126.9 130.1 259.2 265.5 293.8 301 34.6 35.5 72.8 74.5 84.9 86.7l22 22.3H1071.7l24.5-24.8c13.5-13.6 129.5-132 257.9-263.2 128.3-131.2 262.8-268.6 298.9-305.4 36-36.7 65.7-67.3 65.9-67.9.2-.6 31.5 30.2 69.5 68.5s72.7 72.6 77.1 76.1z" fill="#b71c1c"/></svg>