<svg version="1" xmlns="http://www.w3.org/2000/svg" width="30" height="30" viewBox="0 0 512 512"><g fill="#b71c1c"><path d="M240 3.6c-53.6 4.6-96.5 20.7-137.7 51.5-12.6 9.5-37.7 34.6-47.2 47.2-27.2 36.4-43.2 75-49.7 120.2C3 239 3 273 5.4 289.5c6.5 45.2 22.5 83.8 49.7 120.2 9.4 12.5 34.6 37.7 46.9 46.9 37 27.7 74.8 43.4 120.5 50 16.5 2.4 50.5 2.4 67 0 45.7-6.6 83.5-22.3 120.5-50 12.2-9.1 37.5-34.4 46.6-46.6 27.7-37 43.4-74.8 50-120.5 2.4-16.5 2.4-50.5 0-67-6.6-45.7-22.3-83.5-50-120.5-9.1-12.2-34.4-37.5-46.6-46.6-36.2-27.1-74.1-43.1-117.4-49.5-12.5-1.8-42.8-3.2-52.6-2.3zm-2.3 52.1c-3 3.5-5 13.1-4.4 21.5 1.3 16.2 10.5 24.8 25 23.5 6.8-.6 12.7-4 16.4-9.5 4.8-7.3 5.5-24 1.2-32.4-1.1-2.2-1.9-4.2-1.7-4.4.2-.2 4.9.3 10.3 1.2 88.7 13.1 158.7 83 172 171.9 1.9 12.4 1.9 12.1-.2 10.2-3.5-3-13.1-5-21.5-4.4-16.2 1.3-24.8 10.5-23.5 25 .6 6.8 4 12.7 9.5 16.4 7.3 4.8 24 5.5 32.4 1.2 2.2-1.1 4.2-1.9 4.4-1.7.2.3-.3 4.9-1.1 10.4-13.2 88.7-83.1 158.6-172 171.9-12.4 1.9-12.1 1.9-10.2-.3 3-3.4 5-13 4.4-21.4-1.3-16.2-10.5-24.8-25-23.5-6.8.6-12.7 4-16.4 9.5-4.8 7.3-5.5 24-1.2 32.4 1.1 2.2 1.9 4.2 1.7 4.4-.3.2-4.9-.3-10.4-1.1-88.8-13.2-158.7-83.3-171.9-172.2-1.8-12.6-1.9-11.9.3-10 3.4 3 13 5 21.4 4.4 16.2-1.3 24.8-10.5 23.5-25-.6-6.8-4-12.7-9.5-16.4-7.3-4.8-24-5.5-32.4-1.2-2.2 1.1-4.2 1.9-4.4 1.7-.2-.2.3-4.9 1.2-10.3 13-88.3 82.6-158.3 170.9-171.9 13-2 13.2-2 11.2.1z"/><path d="M248.6 121.1c-5.7 4.4-5.7 4.5-8.4 58.8l-2.6 50.5-3.5 3c-1.9 1.7-4.7 5.8-6.3 9.1-2.3 4.9-2.8 7.3-2.8 13.6 0 6.4.5 8.5 3 13.7 5.2 10.4 15.4 17.1 26 17.2l5.5.1 30.3 26.9c31.9 28.4 34.2 30 41.6 28.6 5-.9 10.3-5.9 11.6-10.7 1.6-6-.2-10.9-6.9-18.7-3.2-3.7-15.5-17.9-27.4-31.6-20.7-23.7-21.7-25.1-21.7-29 0-5.6-4.8-15.3-9.6-19.5l-3.9-3.5-2.2-49.9c-1.4-31.5-2.6-51.1-3.4-52.9-.6-1.5-2.5-4-4.1-5.3-3.9-3.3-11.3-3.5-15.2-.4z"/></g></svg>