<svg version="1" xmlns="http://www.w3.org/2000/svg" width="682.667" height="682.667" viewBox="0 0 512 512"><g fill="#b71c1c"><path d="M239.5 51.1c-35.4 5.1-68.3 28.8-84.5 60.9-8.8 17.5-12.3 32.4-12.2 52.5.2 40.3 17 82 68.4 169 6.8 11.5 19.5 33.2 28.3 48.2s16.5 27.2 17 27.2c.6 0 8.2-12.2 17-27.2s21.5-36.7 28.3-48.2c51.4-87 68.2-128.7 68.4-169 .1-20.1-3.4-35-12.2-52.5-21.8-43.1-69.9-67.9-118.5-60.9zm25.3 70.9c20.4 4.8 34.9 25.8 31.3 45.6-2.4 12.8-11 24.3-22.6 30-5.5 2.7-6.9 2.9-17 2.9s-11.5-.2-17-2.9c-16-7.9-25.4-25.7-22.5-42.5 3.9-22.5 26.3-38 47.8-33.1z"/><path d="M174.9 356.3c-5.8 2.4-13.2 5.8-16.4 7.7-8.7 5.2-18.7 15-22.6 22.2-3.2 6-3.4 6.8-3.4 16.3 0 8.9.3 10.6 2.8 15.7 10.6 21.7 40.7 36.3 88.2 43 11.8 1.7 54.2 1.7 66 0 47.5-6.7 77.6-21.3 88.2-43 2.5-5.1 2.8-6.8 2.8-15.7 0-9.5-.2-10.3-3.4-16.3-3.9-7.2-13.9-17-22.6-22.2-6.2-3.6-26-12-28.5-12-1.3 0-16 23.2-16.8 26.6-.2.7.5 1.5 1.5 1.7 13.9 4.1 17.8 5.4 23.9 8.3 7.6 3.6 14.4 9.9 14.4 13.5 0 10.3-21.3 20.7-54.1 26.3-4.7.8-15.4 2-23.6 2.6-49.1 3.6-107.3-11.9-107.3-28.5 0-7.2 12.8-15.1 34.3-21.1 3.5-.9 5.7-2.1 5.5-2.8-.8-3.4-15.5-26.6-16.8-26.6-.8 0-6.3 2-12.1 4.3z"/></g></svg>