<svg version="1" xmlns="http://www.w3.org/2000/svg" width="26" height="26" viewBox="0 0 2400 2400"><g fill="#b71c1c"><path d="M1136.5 1c-117.3 7.3-220.4 27.1-323 62.1C462.3 182.8 185.9 457.9 64.9 808.3 33.6 898.9 13 994.9 4.6 1090 .9 1131.6.5 1142.2.5 1200s.4 68.4 4.1 110c21.6 243.9 119.4 477.3 278.8 665.5 182.6 215.7 435.8 360.6 711.7 407.4 73.1 12.4 129 17.1 204.9 17.1 52.5 0 88.9-1.9 135-7.1 313.3-35 598.7-191.5 798.9-438.3 36.2-44.6 73.1-97.9 102.8-148.6 88.7-151.5 142.5-319.4 158.7-495.5 3.6-39.3 4.1-51.6 4.1-110.5s-.5-71.2-4.1-110.5c-16.2-176.1-70-344-158.7-495.5-80-136.7-187.4-257.3-314.1-352.9-129-97.3-274.4-166.7-431.6-206-66.2-16.6-131.1-26.9-206-32.7C1261.3.5 1159.6-.4 1136.5 1zM1256 152.1c188.1 9.3 372.5 71.1 530.5 177.7 178.9 120.7 317.6 295.3 394.3 496.2 49 128.5 72.5 267.8 68.2 403.7-1.7 53.4-5.5 93.5-13.6 142.3-46.6 283-208.7 535.5-447.7 697.4-147.9 100.2-316.8 160.3-495.2 176.1-58.6 5.1-126.2 5.1-185 0-177.4-15.7-346.5-75.7-494-175.3-171.9-116.1-305.7-280.4-385-472.7-37.2-90.2-62.3-190.5-72.5-290-5.3-51.3-6.7-121.3-3.6-171 9.1-142.2 43.9-273.8 105.6-399 34.3-69.5 73.1-130.8 120.8-190.7 40.5-50.7 88.1-100.3 136.7-142.1 111.3-95.8 243-168.1 382-209.8 67.4-20.2 134.4-33.3 204.5-39.8 50.9-4.7 99.8-5.7 154-3z"/><path d="M1631.5 552.6c-12.5 1.9-34.6 7.5-49.4 12.4-48.1 16-156.5 76.7-259.6 145.3-83.9 55.9-157.1 115.7-248.5 203.2-55 52.6-144 142.3-187 188.5-94 101-153.8 179.8-227.8 300.5-38.8 63.4-76.4 133.2-88.9 165-5.9 14.9-12.2 36.6-15.9 54-3.5 16.4-4.5 44.2-2 56.4 3.6 17.5 10.7 31 23.6 44.4 9 9.6 18.4 17.2 48.5 39.4 70.8 52.3 113.2 77.7 142.3 85.3 20.5 5.4 39.4.8 60.2-14.7 13.4-9.8 61.8-55.7 138.5-130.9 66.5-65.4 83-83.4 91.9-100.9 8.4-16.3 8.7-30.4 1-45.6-4-7.9-27.6-42.7-38.5-56.9-5.8-7.4-15.2-19.6-20.9-27-22.4-29-36.9-53.5-41-69.5-5.7-22.1 2-51.5 19.8-76.4 11.2-15.6 36.5-46.2 53.4-64.6 56-61 178.1-182.9 234.8-234.5 14-12.7 45.9-38.7 59.1-48.2 19.4-13.9 42-21.8 62.5-21.8 18.9 0 45.7 13.8 83.4 43 7.4 5.7 19.6 15.1 27 20.9 14.2 10.9 49 34.5 56.9 38.5 21.2 10.8 41.4 5.9 68.1-16.3 21.7-18.1 153.2-151.7 194.5-197.6 23.9-26.6 31.5-41.2 31.5-60.9 0-30.8-25.1-75.6-94.3-168.4-10.3-13.9-22.9-29.5-27.9-34.8-14.7-15.4-29.7-24-48-27.8-9.6-2-34.5-2-47.3 0z"/></g></svg>