<svg version="1" xmlns="http://www.w3.org/2000/svg" width="25" height="34" viewBox="0 0 512 512"><path d="M170.2 1.8c-8.8 4.7-20.5 17.3-24.9 26.8-10.3 22.3-7.7 47.7 6.9 67.2l3.9 5.3-3.2 5.5c-3.7 6.5-2.3 7.6-12.9-10.9-4-7.1-8.5-13.7-9.8-14.8-6-4.7-15.1-1.1-26.5 10.6C92.5 103 87.1 116 86.3 133c-.8 16.6 3.6 30.6 13.1 42.4l4.3 5.2-1.9 3.4c-1.2 2.4-1.6 4.5-1.2 6.5.3 1.6 23.8 42.3 52.1 90.3l51.5 87.3-5.6 65.7c-3.1 36.1-5.6 67.1-5.6 68.9 0 2.2.9 4.1 3.1 6.2l3.1 3.1h113.6l3.1-3.1c2.2-2.1 3.1-4 3.1-6.2 0-1.8-2.5-32.8-5.6-68.9l-5.6-65.8 51.5-87.2c28.3-48 51.8-88.7 52.1-90.3.4-2 0-4.1-1.2-6.5l-1.9-3.4 4.3-5.2c9.5-11.8 13.9-25.8 13.1-42.4-.8-17-6.2-30-17.4-41.5-11.4-11.7-20.5-15.3-26.5-10.6-1.3 1.1-5.8 7.7-9.8 14.8-10.6 18.5-9.2 17.4-12.9 10.9l-3.2-5.5 4-5.3c9.2-12.3 13.7-27 12.8-42.2-.9-17-7.2-30.9-19.1-42.6C342.8.4 334.1-2.5 328.3 2.4c-1.5 1.3-6.4 8.7-10.8 16.5-6.7 11.9-8.2 13.8-9.2 12.5-.6-.9-4.6-7.6-8.9-15-4.2-7.4-8.6-14.1-9.7-14.9-3.5-2.5-9.7-1.9-14.9 1.4-5.9 3.8-12.4 9.6-15.8 14.3l-2.7 3.6-5.6-6.3C243 5.8 234 0 228.6 0c-2.3 0-5.1.7-6.3 1.5-1.1.8-5.5 7.5-9.7 14.9-4.3 7.4-8.3 14.1-8.9 15-1 1.3-2.5-.6-9.2-12.5-4.4-7.8-9.3-15.2-10.8-16.5-3.5-2.9-8.8-3.2-13.5-.6zm13.3 41.7c5.4 9.3 10.7 18 11.8 19.2 2.8 3.1 8.1 4 12.2 2 2.6-1.3 5.2-4.9 13.6-19.6 5.7-9.9 10.9-17.9 11.4-17.8 2 .7 7.4 8.7 9.6 14.4 3.3 8.2 3.3 22.4.1 30.3-3 7.4-4.8 9.8-6.4 8.2-.7-.7-3.1-1.2-5.3-1.2-5.6 0-14.2 5.6-22 14.2l-5.8 6.6-3.7-4.7c-3.9-4.9-10.1-10.3-16.3-14-3.6-2.2-8.6-2.6-13.6-1-1.5.5-5.4-6.3-7.2-12.6-2.6-9.3-.5-23.6 4.7-32.1 1.8-2.9 6.8-9.3 7-9 .1 0 4.6 7.7 9.9 17.1zM345.7 36c5.1 8.6 7 22.3 4.4 31.6-1.8 6.2-5.7 13-7.2 12.5-5-1.6-10-1.2-13.6 1-6.2 3.7-12.4 9.1-16.3 14l-3.7 4.7-5.8-6.6c-7.8-8.6-16.4-14.2-22-14.2-2.2 0-4.6.5-5.3 1.2-1.6 1.6-3.4-.8-6.4-8.2-3.2-7.9-3.2-22.1.1-30.3 2.2-5.7 7.6-13.7 9.6-14.4.6-.1 5.7 7.8 11.3 17.7 8 13.8 11.1 18.4 13.4 19.6 3.6 1.9 9.1 1.3 11.9-1.2 1.1-.9 6.5-9.7 12.1-19.4l10.1-17.7 2.7 3.1c1.4 1.7 3.6 4.7 4.7 6.6zM142.2 141.7c3 3.2 8.3 4 12.3 1.9 2.5-1.4 5.6-5.9 13.6-19.7 5.7-9.8 10.8-17.8 11.3-17.6 1.7.6 8.5 11.1 10.1 15.6 6.5 18.9-1.8 40.7-19.5 50.7-16.6 9.5-38 6-51-8.3-14.4-15.8-15.3-37.3-2.3-54.4l3.6-4.8 9.9 17.2c5.5 9.5 10.9 18.2 12 19.4zM400 117.5c15.9 31.6-13.7 68-48.1 59.1-23.5-6.2-37.3-31.8-29.4-54.7 1.6-4.5 8.4-15 10.1-15.6.5-.2 5.6 7.8 11.3 17.6 11.5 19.8 13.6 22 20.4 20.7 4.7-.9 6.4-3 17.7-22.8l9.5-16.6 2.7 3.2c1.5 1.7 4.1 5.8 5.8 9.1zm-162.3 6.7c10.1 17.6 12.9 20.8 18.3 20.8 5.2 0 8.3-3.3 16.4-17.6 4.4-7.6 9.1-15.6 10.4-17.8l2.4-3.8 2.4 2.3c6 5.6 10.4 17.2 10.4 27.3 0 14.5-6.1 26.2-17.9 34.7-23.4 16.8-56.1 5.1-64.7-23-2.9-9.7-1.3-22.8 3.9-32.1 2.6-4.5 6.8-9.1 7.8-8.5.4.3 5.2 8.2 10.6 17.7zm143 77c-.8 2.3-88.9 151.3-90.2 152.6-.8.9-3.2 1.2-7.2 1l-6-.3 10.8-46.5c6-25.6 10.9-48.4 10.9-50.7 0-5.9-3.1-9.3-9.3-10-4.3-.5-4.9-.3-8 2.8-3.2 3.3-3.6 4.6-14.2 50.6-6 26-11.1 47.3-11.5 47.3-.4 0-5.5-21.3-11.5-47.3-10.6-46-11-47.3-14.2-50.6-3.1-3.1-3.7-3.3-8-2.8-6.2.7-9.3 4.1-9.3 10 0 2.3 4.9 25.1 10.9 50.7l10.8 46.5-6 .3c-4 .2-6.4-.1-7.2-1-1.3-1.3-89.4-150.3-90.2-152.6-.4-.9 24.9-1.2 124.7-1.2 99.8 0 125.1.3 124.7 1.2zM245 410.5c0 38.1.3 40 5.9 42.9 3.8 2 6.4 2 10.2 0 5.6-2.9 5.9-4.8 5.9-42.9V376h10c5.5 0 10 .4 10 .8 0 1.6 8.9 106.6 9.4 110.4l.4 3.8h-81.6l.4-3.8c.5-3.8 9.4-108.8 9.4-110.4 0-.4 4.5-.8 10-.8h10v34.5z" fill="#b71c1c"/></svg>