<svg version="1" xmlns="http://www.w3.org/2000/svg" width="25" height="25" viewBox="0 0 512 512"><path d="M74.9 41c-6.1 1.1-11.6 4-16 8.7-7.5 7.9-7.4 6.9-7.7 45.3-.3 36.5-.1 39 4.3 46l2.4 3.7-18.5 27.7c-10.2 15.2-18.7 29-19 30.5-.4 1.7.1 4.3 1.1 6.5 2 4.2 5.1 6.1 19.5 11.7l9.5 3.7.5 114.3c.6 125.9.1 116.3 7.3 130.3 7.7 14.9 23.5 27.2 39.8 31.1 9.6 2.2 306.2 2.2 315.8 0 16.4-3.9 32-16.1 39.9-31.2 7.5-14.5 7.2-7.5 7.2-133.3V223.4l8.8-2.8c13.7-4.4 19.1-7.3 20.9-11.1 3-6.3 1.8-8.3-20.7-35.3L449 149l3.3-2.9c1.8-1.6 4.4-5.1 5.7-7.8l2.5-4.8V97c0-35.5-.1-36.6-2.2-40.5-3-5.5-8.8-11-14.8-13.7l-5-2.3-179.5-.1c-98.7-.1-181.6.2-184.1.6zm361.2 22.3c3.6 2.8 3.9 5.1 3.9 34.6v29l-2.4 2.8-2.4 2.8H76.8l-2.4-2.8-2.4-2.8v-29c0-29.5.3-31.8 3.9-34.6 2.3-1.8 357.9-1.8 360.2 0zm7.4 113.1c10.3 12.4 18.6 22.8 18.5 23.3-.3 1-12.4 4.7-24.5 7.4-13.9 3.2-28.8 4.9-42.5 4.9-21.5 0-35.4-3.2-53.8-12.2-9.4-4.7-12.9-5.9-15.1-5.5-1.6.4-8.2 2.8-14.8 5.6-25.9 10.8-43.5 14.6-63.8 13.8-18.3-.8-32.7-4.9-50.2-14.2-11.2-5.9-12.9-6.2-20.5-3-26.6 11.2-45.3 15.4-67.8 15.5-17.2 0-36.9-2.7-41.7-5.8-1.2-.7-3.7-1.5-5.5-1.6-4.3-.4-14.9-3.8-14.6-4.7.2-.4 7.1-10.8 15.3-23.3l15-22.6h347.3l18.7 22.4zm-250.6 45.2c11.3 5.5 25 10.1 34.9 11.7 3.9.6 7.2 1.5 7.2 1.9 0 .4-1.2 2.7-2.7 5.2l-2.7 4.5-29.7.3-29.7.3-2.7 2.5c-1.5 1.4-9.7 14.2-18.3 28.5-14.8 24.5-15.7 26.3-15.7 31 .1 4.6 1.2 6.8 15.4 30.5 8.5 14 16.4 26.6 17.8 28l2.3 2.5 30.3.3 30.2.3 14.5 24.2c9.7 16.1 15.3 24.6 17 25.4 3.6 1.8 68.4 1.8 72 0 1.7-.8 7.9-10.2 19-28.6 15.2-25.3 16.5-27.8 16.4-32-.1-4.1-1.7-7.3-13.7-27.3-7.6-12.4-13.7-23.1-13.7-23.6 0-.6 6.2-11.3 13.7-23.9 12.4-20.4 13.8-23.3 13.8-27.4 0-3.3-.7-5.7-2.7-8.6-2.5-3.8-2.9-4-9-4.6-7.7-.6-14.9-3-20.5-6.8-2.4-1.5-4.3-2.4-4.3-1.9s2.9 5.5 6.5 11 6.5 10.5 6.5 11.1c0 .6-5.2 9.8-11.6 20.5L321.7 296h-49.4l-11.7-19.4c-6.4-10.7-11.6-20-11.6-20.8 0-.7 2.7-5.6 5.8-10.8 4.5-7.4 6.4-9.6 8.3-9.8 16.8-1.8 37.5-7.3 55.6-14.8l8.2-3.4 6.8 3.5c9.2 4.6 23.6 9.2 35.2 11.2 17.5 3 46.7 2 67.9-2.3l3.2-.7-.2 109.9-.3 109.9-2.3 5.5c-4.6 11.3-12.9 19.6-24.2 24.2l-5.5 2.3h-303l-5.5-2.3c-11.3-4.6-19.6-12.9-24.2-24.2l-2.3-5.5-.3-109.1-.2-109.1 8.3 1.2c21.7 3.3 43 2.7 64.1-1.6 11.2-2.3 28.5-7.7 34.3-10.8 2.1-1.1 4-2 4.3-2.1.3 0 4.8 2.1 9.9 4.6zm48.4 65c6.4 10.7 11.7 20.1 11.7 20.7-.1.7-5.4 10-11.8 20.7l-11.8 19.5-24.5.3-24.4.2-12.3-20.4-12.2-20.4 12.1-20.1 12-20.1h49.4l11.8 19.6zm92.3 51.6l12.1 20.1-12.1 20.3-12.1 20.3-24.5.1h-24.5l-12-20c-6.6-11-11.9-20.4-11.8-20.8 0-.4 5.4-9.6 11.9-20.5l11.9-19.7h49l12.1 20.2z" fill="#b71c1c"/></svg>