<svg version="1" xmlns="http://www.w3.org/2000/svg" width="23" height="30" viewBox="0 0 512 512"><g fill="#b71c1c"><path d="M233.6 1.6c-36.4 8.1-63.9 35-73.2 71.4-2.8 11-2.6 36.4.4 47.3 2.6 9.4 8.9 23.2 13.8 29.9 1.9 2.8 3.3 5.2 3.1 5.5-.3.2-4.2-.7-8.7-2.1-11.1-3.6-12.4-3.4-17.5 1.8-5 5.2-5.7 8.8-4.2 20.2.5 3.9.7 8.8.3 10.9-.9 4.7-5.5 9.5-9.1 9.5-3.6 0-9.2 2.5-10.3 4.7-2.2 4.4-2.2 8.7.4 19.1 2.3 9.5 2.5 11.2 1.5 15.8-1.4 6.2-2.8 7.6-10.3 10.5l-5.7 2.1-10.6-3.7c-5.8-2.1-10.5-4.1-10.5-4.6 0-1.8 4.7-3.9 8.7-3.9 3.3 0 5-.7 7.5-2.9 3.3-2.9 3.3-3 3.3-12.3 0-6.4-.6-11-1.8-14.7-3.6-10.8-.2-18.3 8.9-19.4 9.4-1 12.4-7.3 10.6-22.2-1.3-10.6-.3-15.3 4.1-18.7 1.2-.9 2-1.8 1.7-2.1-.3-.2-6.8-2.2-14.6-4.5-11-3.3-15.7-4.2-21.5-4.2-25.9 0-44.3 16.2-50.9 44.9-3.5 15.1 3.3 38.8 13.9 48.4 4 3.6 3.7 3.5 53.5 22.3 26.9 10.1 29.4 11.3 34.3 15.7 10.7 9.9 14.8 25.2 10.8 40.7-7.2 28.1-21.2 63.1-30.7 77.2-5.5 8-7.8 14.4-7.8 21.1 0 4.2.5 5.4 3.3 8.2 3.7 3.7 7.3 4.9 21 7.1 9.8 1.6 12.7 2.9 15.3 6.9 1.5 2.3 1.5 3 .2 7.8-3.2 11.1.8 16.9 14.4 21.1 4.6 1.4 9.8 3.5 11.6 4.6 4.1 2.5 6.6 8.1 5.7 12.7-.3 1.8-.3 3.3.1 3.3s10.2-6.7 21.9-14.9c22.9-16.1 25.1-17.1 38-17.1 12.9 0 15.1 1 38 17.1 11.7 8.2 21.5 14.9 21.9 14.9.4 0 .4-1.5.1-3.4-1.5-7.8 4.3-13.5 18.2-17.5 12.5-3.7 16.9-9.8 14.1-19.6-.8-2.8-1.2-6-1-7.3.6-4.1 6-7 15.9-8.6 13.7-2.2 17.3-3.4 21-7.1 2.8-2.8 3.3-4 3.3-8.2 0-2.6-.4-6.4-1-8.2-.5-1.9-.9-3.6-.7-3.7.1-.2 2.5 1.2 5.2 3 2.8 1.8 6.6 3.9 8.6 4.6 4 1.4 4.9 3.7 4.9 12.3 0 9.9-8.7 16.8-23.5 18.4-5.9.7-11 3.1-14.4 6.7-2.2 2.3-2.3 3-1.6 7.8 1.5 10.3 1.2 11.8-3.3 15.8-2.8 2.5-6.3 4.3-11.4 5.8-4.1 1.2-9 3.2-10.9 4.4-4.4 3-7.1 8.3-6.5 12.5.5 3.2.5 3.3-2 1.7-1.3-.9-2.4-1.2-2.4-.8.1.9 9.1 7.6 21.1 15.5 3.9 2.6 10.8 5.9 15.7 7.5 8.2 2.7 9.6 2.9 25.2 2.8 14.5 0 17.3-.3 23-2.3 16.7-5.9 32.3-20.2 43.4-39.9 6.6-11.7 8.2-28.4 4-40.5-2.5-7.2-10.2-15-18.8-19.1-8.4-3.9-9.1-4.1-26.7-7-12.9-2.2-17.8-3.8-27.5-9.3-2.8-1.6-8-8.4-13.2-17.3-5.8-9.9-18.1-42.4-24.3-64.1-4.2-14.7-3.9-24.4.9-34.1 5.8-11.8 5.8-11.8 51.8-29.2 22.7-8.5 42.5-16.1 44.1-17 7.5-3.8 15-16.4 17.7-29.8 2.1-10.2 2-15.3-.4-24.9-5.6-22-17.9-35.5-36.7-40.4-6.4-1.7-19.5-2-23.9-.6-1.6.6-7.5 2.4-13.2 4.1l-10.2 3.1 2.7 3.6c2.5 3.3 2.7 4.1 2.4 11.2-.8 16.6-.6 19.9 1.5 22.8 1.9 2.6 6.1 4.5 12.6 5.8 6.1 1.2 8.1 9.5 4.9 19.9-3.6 11.8-2.4 23.2 3 27 1.4.9 4.3 1.6 7.1 1.6 3.6 0 5.2.5 6.8 2.2l2.1 2.3-3.2 1.3c-1.8.8-6.7 2.6-10.9 4.1l-7.6 2.8-6.7-2.6c-3.7-1.4-7.4-3.6-8.3-4.9-2.5-3.7-2.9-11.9-.8-19.2 1-3.6 1.9-9.6 1.9-13.3 0-6.2-.3-7.1-2.7-9.2-1.5-1.3-4.6-2.6-7-3-5.8-1-8.3-2.9-10.3-7.7-1.4-3.6-1.5-5.3-.4-12.9.6-4.8.9-10.3.5-12.3-.9-4.8-4.9-9.3-9.6-10.7-3.4-1-5.1-.8-15.8 2.5-6.7 2-12.6 3.6-13.1 3.6-.6 0 1-2.7 3.5-6 6-8 12.8-22.6 15.6-33.6 2.6-10.5 3.1-32 .9-41.9-5.9-26.6-21.5-48.8-44.7-63.3-5.8-3.7-14.9-7.6-24.4-10.4-9-2.7-35.4-3.4-45.4-1.2zm60.2 50c6.8 3.4 9.6 7.8 8.9 14.2-.4 3.7-1.2 5.3-4.1 7.9-1.9 1.8-4.7 3.5-6.1 3.9-3.8.9-9.5-1-13.9-4.8-3.2-2.8-3.9-4.1-4.3-8.2-.7-6.1 1.4-10.4 6.5-13.4 4.8-2.8 6.7-2.7 13 .4zM235.7 53c4.5 2.7 6.6 6.4 6.6 11.6 0 14.7-20.2 18.1-25.7 4.3C212 57.4 225 46.5 235.7 53zm-7.8 71c20.1 10.2 49.4 6.8 63.4-7.3 2.6-2.7 4.7-4.3 4.7-3.7 0 .6.4.9.9.5 1.4-.8 2.5 5.8 1.7 10.3-1.2 7.7-10.5 16.6-21.4 20.5-15.4 5.4-34.8 3.8-48-3.9-12.4-7.3-18.1-16.8-15.6-26.1.6-2.1.9-1.9 5.3 2.6 2.6 2.7 6.7 5.9 9 7.1z"/><path d="M120.6 394c-5.7 4.3-13.1 6.7-27.5 8.9-24.1 3.7-36.4 10.7-42.5 24.2-3.3 7.1-4.2 15.3-2.7 24.9 1.4 9 4.3 15.5 11.2 25.5C69.8 493 82.9 504 96.4 508.9c6.5 2.3 8.5 2.5 23.6 2.6 14.6 0 17.4-.3 24-2.3 10.1-3.2 14.9-5.8 25.5-13.7l9-6.7-.4-4.7c-.7-9.3-4-12.4-18.1-16.7-13.4-4.1-17.5-10.1-13.9-20.3 2.6-7.4-3.7-13.2-16.6-15.5-9.4-1.6-13.8-3.3-18.2-7-4-3.4-5.1-7.2-4.5-15.7.4-6.5.4-6.6 4.1-7.8 4.2-1.5 14.1-7.9 14.1-9.2 0-1.2.1-1.2-4.4 2.1z"/></g></svg>