<svg version="1" xmlns="http://www.w3.org/2000/svg" width="28" height="29" viewBox="0 0 512 512"><g fill="#b71c1c"><path d="M153.5 1.4c-10.3 3.3-21.6 11.7-36.6 27.3C103 43.2 98 53.8 98 68.8c0 25.6 13.5 48.4 36.3 61.2 4.2 2.3 5.6 3.7 5.3 4.9-.3.9-1 6.3-1.5 12.1-1 10.5-.1 26.4 1.9 35.5 1.7 7.4 6.2 20.8 8.6 25.6l2.3 4.6-54.7 28.8c-30.1 15.8-57.1 30.3-60 32.2-14.4 9.6-19.7 23.3-14.7 38.4 4.9 14.7 14.4 22 29 22.1 11 0 12.3-.4 67.8-23.4 12-4.9 22.1-8.8 22.3-8.5.3.3-.3 7.9-1.4 16.9-1.1 8.9-1.9 16.3-1.8 16.4 0 .1 4.2-.3 9.1-.8 14.3-1.4 31 .7 42.9 5.4 6 2.3 7.2 1.9 8-2.4 2.7-14.5 18.5-29.9 37.3-36.5 7-2.5 9.1-2.8 21.3-2.8 12.2 0 14.3.3 21.3 2.8 18.8 6.6 34.6 22 37.3 36.5.8 4.3 2 4.7 8 2.4 11.9-4.7 28.6-6.8 42.9-5.4 5 .5 9.1.9 9.1.8.1-.1-.7-7.5-1.8-16.4-1.1-9-1.7-16.6-1.4-16.9.2-.3 10.3 3.6 22.3 8.5 55.5 23 56.8 23.4 67.8 23.4 14.6-.1 24.1-7.4 29-22.1 5-15.1-.3-28.8-14.7-38.4-2.9-1.9-29.9-16.4-60-32.2l-54.7-28.8 2.3-4.6c2.4-4.7 6.9-18.2 8.6-25.5 2-9.1 2.9-25.1 1.9-35.6-.5-5.8-1.2-11.2-1.5-12.1-.3-1.2 1.1-2.6 5.3-4.9 23-12.9 36.3-35.5 36.3-61.2 0-15-5-25.6-18.9-40.1-12-12.4-22.8-21.2-31.1-25.1C358.3.9 356.2.5 346.8.2c-26.5-1-49.8 12-62.4 34.6l-3.6 6.4-6.1-.9c-3.4-.4-11.8-.8-18.7-.8-6.9 0-15.3.4-18.7.8l-6.1.9-3.6-6.4C215.4 12.9 192.9 0 167.5.1c-5.5 0-11.8.6-14 1.3zm22.4 40.2c4 1.1 6.8 3 11.2 7.3 3.2 3.1 5.9 6.2 5.9 6.7 0 .6-2.1 2.6-4.7 4.5-12.2 8.7-21.6 18.3-31.8 32.3l-2 2.8-4.3-3.2c-7.7-5.6-13.4-18.2-11.6-25.6.7-2.9 15.7-18.3 22.8-23.5 4.5-3.3 7.1-3.5 14.5-1.3zM352 44.1c8.6 6.8 20.7 19.4 21.4 22.4 1.8 7.3-3.9 19.9-11.6 25.5l-4.3 3.2-2-2.8c-10.2-14-19.6-23.6-31.7-32.3-2.7-1.9-4.8-3.9-4.8-4.5 0-.5 2.7-3.6 5.9-6.7 4.2-4.1 7.3-6.2 10.8-7.3 8-2.4 10.5-2.1 16.3 2.5zM276.5 114c21.6 6.7 39.2 24.1 46.5 46 3.1 9.2 3.8 26.2 1.6 36.1-7.2 32.3-35.4 55-68.6 55-33.2 0-61.4-22.7-68.6-55-2.2-9.9-1.5-26.9 1.6-36.1 8.2-24.6 28.5-42.6 54.1-48 7.4-1.5 25.5-.5 33.4 2z"/><path d="M250.9 134.1c-9 1.4-17.6 7.6-22.1 16.2-3.3 6.2-3.3 20.3 0 26.7 5.7 10.9 14.8 16.4 27.2 16.4 12.4 0 21.5-5.5 27.2-16.4 3.3-6.4 3.3-20.5 0-26.7-6.2-11.8-19.1-18.3-32.3-16.2zM151.5 357c-25.3 5.4-44.2 25.9-50.2 54.4-2 9.6-1.3 30.4 1.4 40.1 7.6 27.1 25.8 47.8 49.9 56.7 4.9 1.8 8.1 2.2 19.4 2.2 12.3 0 14.1-.2 20.2-2.6 9-3.6 16.2-8.4 22.8-15.2 13.7-14 20.3-31.8 20.1-54.6-.1-24.9-9.3-46.7-26.5-62.7-13.8-12.8-26.2-18.2-43.1-18.8-5.5-.2-11.8 0-14 .5zm183 .5c-21.8 5.5-42.7 24.9-51.5 47.7-4.6 11.8-6.2 20.8-6.2 34.3 0 32.3 16 57.7 43 68.3 6 2.3 8.1 2.6 19.7 2.6 11.7.1 13.8-.2 20.3-2.6 9.9-3.6 17-8 25.4-15.7 8.1-7.5 13.6-15.2 18.8-26.5 6.2-13.2 7.5-19.9 7.5-37.6 0-13.5-.3-16.5-2.3-23-3.9-12.4-9.8-22.7-17.7-30.6-7.7-7.8-13.4-11.5-23.4-15.2-8.5-3.1-24.6-3.9-33.6-1.7z"/></g></svg>