<svg version="1" xmlns="http://www.w3.org/2000/svg" width="27" height="29" viewBox="0 0 1600 1600"><g fill="#b71c1c"><path d="M761 1.1c-45 5.5-86.9 22.6-122 49.7-11.6 9-30.6 27.7-39.9 39.2-27.8 34.6-45.1 74.5-51.7 119.5-2.2 14.6-2.4 48.4-.5 62.5 7.7 56.7 32.7 106.4 72.8 145 27.1 26.1 56.1 43.6 91.8 55.5 26 8.6 49.6 12.5 76.5 12.5 55.4 0 107.5-18.4 152.5-53.8 3.9-3.1 12.6-11.2 19.5-18.1 37.8-38 60.8-84.8 68.6-139.6 2-14.2 2.2-45.3.5-59-5.7-44.1-21.7-83.8-48.2-119.2-9.4-12.6-33.6-36.7-46.1-46.1C909.2 30 880.3 15.9 851 8.1 829.1 2.3 817.7.8 792 .5c-12.9-.2-26.9.1-31 .6zm-53.1 165.4c8.7 2.1 15.5 5.9 22.2 12.6 18.3 18.2 18.3 47.6.1 65.8-18.7 18.8-47.6 18.8-66.3.2-25.5-25.6-13.8-69.2 21-78.3 8.2-2.1 14.8-2.2 23-.3zm180.3-.4c36.2 7.5 49.9 52.6 24 78.7-18.2 18.3-46.3 19.1-65 1.7C837 237 832 225.6 832 212c.1-13.2 4.3-23.4 13.6-32.8 11.5-11.6 27-16.3 42.6-13.1zM703.9 339.4c1.5.8 5.3 4.6 8.4 8.4 19.3 24 56.3 35.6 94.7 29.7 24.5-3.7 42.9-13.5 57.1-30.4 6.4-7.5 7.3-8.1 13-8.1 7.7 0 14.9 5.2 16.4 11.9 2.4 10.9-22.3 35-47.3 46.2-8.6 3.9-20.8 7.5-32.2 9.6-14.4 2.5-40.2 2.3-54.8-.6-24.6-4.8-43.9-14.2-61.1-29.7-7.2-6.5-14.9-16.8-15.7-21.1-.9-5 1.1-10.6 5.1-14.2 3-2.6 4.4-3.1 8.6-3.1 2.7 0 6.3.6 7.8 1.4zm-535.2 54.7c-20.9 3.1-42.3 12.4-59.1 25.9-41.6 33.5-56 90.9-34.7 139 13.5 30.7 41.1 55.1 73.9 65.4 14.4 4.5 64.8 16.5 65.5 15.5.8-1 70-224.9 69.6-225.3-.2-.1-11-2.7-23.9-5.5-12.9-2.9-30-7-38-9.2-23.4-6.3-38.6-8-53.3-5.8zm1207.8-.2c-2.7.5-11.4 2.7-19.1 4.9-7.8 2.2-25.7 6.7-39.9 9.8l-25.7 5.8.6 2.6c.6 3.3 68.7 222.3 69.2 222.9 1 1.1 60.9-13.6 70.6-17.3 60.2-22.6 91.8-85.2 73.3-144.6-13-41.6-50-74.1-93.7-82.5-9.9-1.9-28.3-2.7-35.3-1.6z"/><path d="M308.1 538.8c-19 60.9-34.7 111.7-34.9 112.9-.2 1.3-.2 2.3.2 2.3.3 0 12.4 2.5 26.8 5.6 14.5 3 52 10.9 83.3 17.4 89.1 18.6 104.7 22 109.8 23.6 3.1 1 6.9 3.6 10.8 7.1 9.9 9.2 16.2 24.6 18.8 46.3.7 5 1.1 31.6 1.1 65.2 0 56 0 56.9-2.5 71.3-14.5 84.3-75.5 310.9-116.4 432.7-3.3 9.8-5.9 17.8-5.8 17.8.1 0 53.1 17.6 117.7 39s117.5 38.8 117.6 38.7c1.2-1.2 94.1-212.2 109-247.4 11.3-26.9 14.8-34 20.8-41.9 6.6-8.8 15.5-14.4 22.9-14.4 1.9 0 6.1 1.4 9.5 3.1 12 5.9 19.1 16.8 34.7 53.1 13.9 32.5 98.6 223.7 108.5 244.9l1.2 2.7 115.7-38.5c63.6-21.2 116-38.9 116.4-39.3.5-.4-3.2-13.3-8.2-28.6-43.2-133.6-100.2-351.4-112.3-429.4-1.8-11.8-1.8-117.5 0-130.5 3.8-26.8 12.3-43.5 25.6-50 6-2.9 46.9-11.8 221.9-48.2 2.4-.5 2.8-1 2.3-2.9-1.7-6.8-68.9-222-69.5-222.7-.5-.4-14 1.7-30.1 4.8-145.7 27.4-343.6 52.5-415 52.5-69.2 0-253.9-23-401.8-50.1-15.1-2.7-30.5-5.6-34.3-6.4-3.9-.8-7.6-1.5-8.2-1.5-.7 0-15.3 45.5-35.6 110.8zm498.5 55.3c10.6 3.2 19.1 8.4 27.5 16.8 16 16 22.7 37.2 18.5 58.1-5.2 25.3-23 43.7-49 50.2-6.6 1.7-10 2-19.1 1.5-18.3-.9-31.1-6.4-44-19.2-19.7-19.6-24-49.3-10.8-74.8 5.7-11 18.3-23.2 29.3-28.5 4.7-2.2 11-4.5 14-5.1 3-.6 6.4-1.3 7.5-1.5 4.2-1 19.4.4 26.1 2.5zm-2.1 262.4c22.1 5.6 40.6 23.2 47.1 45 1.3 4.3 1.8 9.2 1.8 17.5 0 10.2-.4 12.5-3 20.1-6 16.9-17.9 30.6-32.9 38-10.7 5.2-18.1 7-29.6 7-19.5.1-35.3-7-48.8-21.8-19.7-21.4-22.6-54-7-77.9 8.3-12.8 23.8-23.9 38.9-27.8 7.4-2 26-2 33.5-.1zm-428 551.2c-7.4 23.1-8.7 29.6-9.2 45.6-.4 9.4-.1 17.6.7 22.5 4.1 25.5 15.3 47.6 33.5 65.7 24 24 55 35.8 90 34.2 20.1-1 34.2-4.8 52.3-14.2 25.7-13.3 47.9-39.3 56.7-66.5 1-3 3.5-9.5 5.7-14.4 2.1-4.9 3.7-9 3.6-9.1-.6-.5-227.5-75.5-228.5-75.5-.6 0-2.7 5.3-4.8 11.7zm702.1 25.8c-61.5 20.6-112.1 37.6-112.4 37.9-.2.3.3 2.3 1.1 4.5.9 2.2 2.8 8 4.2 13 11.9 42.4 48 75.3 93 84.6 11.3 2.4 29.3 3 41.1 1.5 52.9-6.6 94.7-47.8 102.5-101 1.6-11.1.6-32.2-1.9-42-3.4-12.8-12.5-36-14.2-35.9-.8 0-51.8 16.9-113.4 37.4z"/></g></svg>