<svg version="1" xmlns="http://www.w3.org/2000/svg" width="25" height="25" viewBox="0 0 100 100"><g fill="#b71c1c"><path d="M46.7 6.8c-.4 1.9-2 3.8-4.7 5.6-2.4 1.6-4.8 4.2-5.6 6.2-.9 2-2.1 3.4-3.2 3.4-.9 0-3.4 1.1-5.5 2.5-3.2 2.3-3.7 3.1-3.7 6.6 0 11.7 8.1 17.6 26 18.8 10.9.8 10.7 2.6-.3 2.6-14.2-.1-23.9-5.1-27.3-14-1.9-5.2-3.5-5.6-8.4-2.3-5.5 3.8-7.4 7.1-7.8 14.1-.3 5.1.1 7 2 10.7 5.6 10.4 22 15.1 41.8 11.9 8.2-1.3 13-3.4 20.9-9.3 8.4-6.1 10.8-6.7 13.6-3.2l2.1 2.6 2.6-2.7c3.1-3.3 5.1-10.1 4.2-14-1.8-7.8-7-13.4-16.7-18.3-4.1-2-5.3-3.2-6.4-6.4-1.9-5.5-5.6-10.1-11.6-14.1-6.7-4.5-11.2-4.8-12-.7z"/><path d="M75.4 63.9c-3.9 2.8-4 3-5.2 11.6C69 84.8 68.6 86 67 84.4c-.6-.6-.6-3.2.1-7.3.5-3.5.8-6.6.5-6.8-.2-.2-1.8.3-3.5 1.2-2.6 1.3-3.1 2.1-3.1 5.3 0 5-1 8.4-2.3 7.9-.7-.2-1-2.3-.8-5.1.3-4.7.2-4.7-2.6-4.4-2.5.3-2.9.8-3.3 4.7-.7 6.2-3 6.7-3 .6 0-4.4-.2-4.7-2.2-4.1-1.3.3-2.6.6-3 .6-.5 0-.8 1.8-.8 4.1 0 5.2-2.4 4.8-2.8-.4-.3-3.5-.5-3.7-3.7-3.7-3.3 0-3.3.1-2.5 3.1.5 1.8.7 3.6.4 4-1.1 1.9-2.2.7-3.3-3.6-.8-3.3-1.6-4.5-2.9-4.5-1 0-4-.7-6.6-1.6-2.6-.9-4.9-1.4-5.1-1.2-.3.3.4 4.7 1.5 9.9 1.5 6.6 2.7 9.9 4.1 11.1C24 95.8 26.9 96 49.5 96c22.6 0 25.5-.2 27.4-1.8 1.7-1.3 2.9-4.9 5.1-15 2.7-12.4 2.8-13.5 1.4-15.8-2.1-3.1-3.2-3-8 .5z"/></g></svg>