<?xml version="1.0" standalone="no"?>
<!DOCTYPE svg PUBLIC "-//W3C//DTD SVG 20010904//EN"
 "http://www.w3.org/TR/2001/REC-SVG-20010904/DTD/svg10.dtd">
<svg version="1.0" xmlns="http://www.w3.org/2000/svg"
 width="26px" height="26px" viewBox="0 0 900.000000 1030.000000"
 preserveAspectRatio="xMidYMid meet">
<style type="text/css">
    <![CDATA[
    .red { fill: #b71c1c; }
    ]]>
  </style>
<g class="red" transform="translate(0.000000,1030.000000) scale(0.100000,-0.100000)"
fill="#000000" stroke="none">
<path d="M2246 10270 c-192 -66 -327 -173 -551 -440 -128 -153 -163 -188 -335
-335 -308 -263 -418 -414 -464 -637 -58 -283 40 -561 309 -869 211 -242 476
-430 925 -654 450 -225 1093 -464 1712 -637 l47 -13 -512 -271 -512 -271 -5
-796 -5 -796 -450 229 -450 228 -3 755 -2 754 327 133 c181 73 332 137 337
141 5 5 -8 16 -30 24 -471 192 -844 382 -1124 572 -163 112 -253 186 -373 305
l-97 98 -398 -131 c-218 -72 -413 -139 -432 -149 -46 -24 -116 -100 -141 -153
-18 -40 -19 -77 -19 -833 l0 -790 26 -52 c14 -29 47 -70 72 -93 34 -29 265
-151 827 -433 2432 -1222 3058 -1538 3222 -1623 212 -109 275 -133 353 -133
75 0 141 24 313 113 128 67 705 358 3262 1643 562 283 793 403 827 433 25 23
58 64 72 93 l26 52 0 790 c0 756 -1 793 -19 833 -25 53 -95 129 -141 153 -19
9 -214 77 -432 149 l-397 132 -98 -99 c-166 -166 -367 -314 -632 -466 -224
-129 -576 -297 -818 -391 -40 -16 -73 -33 -73 -39 0 -6 145 -70 323 -142 l322
-130 3 -760 2 -759 -438 -222 c-242 -123 -442 -223 -445 -223 -4 0 -7 355 -7
788 l0 788 -520 274 -520 274 48 14 c639 178 1268 414 1742 652 415 210 695
409 895 639 269 309 367 586 309 869 -44 214 -157 374 -428 604 -187 160 -236
208 -349 343 -247 294 -377 398 -578 466 -92 31 -95 31 -253 27 -132 -4 -173
-9 -226 -27 -186 -64 -358 -179 -550 -371 -137 -136 -196 -208 -307 -375 -240
-361 -501 -940 -723 -1605 -77 -229 -180 -567 -180 -589 0 -37 -21 15 -60 149
-266 915 -633 1749 -961 2186 -191 254 -457 480 -673 571 -121 51 -183 63
-341 63 -129 0 -147 -3 -229 -30z m296 -451 c71 -15 159 -59 243 -122 97 -71
248 -225 328 -332 232 -313 485 -854 716 -1530 72 -211 211 -659 211 -681 0
-15 -209 46 -570 165 -978 325 -1588 639 -1888 973 -202 224 -260 383 -194
531 32 71 106 150 270 291 181 155 283 257 442 445 144 169 212 224 315 257
51 16 63 16 127 3z m4048 -5 c104 -31 157 -76 323 -269 167 -195 239 -267 419
-421 177 -151 237 -215 275 -293 36 -73 41 -142 15 -228 -36 -118 -169 -293
-335 -440 -234 -209 -733 -470 -1312 -688 -361 -136 -1015 -344 -1015 -323 0
45 202 672 310 964 262 703 512 1165 770 1424 160 161 285 246 405 276 68 17
83 17 145 -2z"/>
<path d="M4350 8894 c-41 -14 -76 -27 -78 -29 -2 -2 41 -115 96 -252 55 -136
105 -265 111 -285 7 -21 16 -38 20 -38 4 0 29 57 56 128 26 70 76 196 111 280
35 84 64 157 64 161 0 5 -38 20 -84 35 -108 33 -193 33 -296 0z"/>
<path d="M430 5073 c0 -4 0 -605 0 -1334 0 -1488 -6 -1377 76 -1468 35 -39
104 -84 347 -224 166 -96 550 -317 852 -492 677 -391 1350 -780 2065 -1193
300 -173 568 -325 595 -338 40 -19 67 -24 137 -24 48 0 100 5 115 12 15 7 415
236 888 509 1254 723 2393 1381 2685 1550 140 81 272 164 292 184 20 20 50 62
65 93 l28 57 3 1338 c1 735 0 1337 -3 1337 -3 0 -147 -71 -320 -157 l-315
-158 0 -1051 0 -1050 -417 -241 c-2012 -1160 -2680 -1547 -2690 -1555 -10 -8
-13 224 -13 1156 0 796 -3 1166 -10 1166 -6 0 -32 -11 -58 -24 -156 -79 -354
-79 -513 0 -26 13 -49 20 -53 17 -3 -4 -6 -526 -6 -1161 0 -919 -3 -1153 -12
-1149 -7 3 -490 280 -1073 617 -583 336 -1279 739 -1547 893 l-488 282 0 1050
0 1050 -307 155 c-170 85 -311 156 -315 158 -5 2 -8 0 -8 -5z"/>
</g>
</svg>
