<?xml version="1.0" standalone="no"?>
<!DOCTYPE svg PUBLIC "-//W3C//DTD SVG 20010904//EN"
 "http://www.w3.org/TR/2001/REC-SVG-20010904/DTD/svg10.dtd">
<svg version="1.0" xmlns="http://www.w3.org/2000/svg"
 width="30px" height="30px" viewBox="0 0 520 520"
 preserveAspectRatio="xMidYMid meet">
<style type="text/css">
    <![CDATA[
    	.red { fill: #b71c1c; }
    ]]>
</style>
<g class="red" transform="translate(0.000000,512.000000) scale(0.100000,-0.100000)"
fill="#000000" stroke="none">
<path d="M686 5087 c-41 -39 -50 -68 -44 -143 4 -45 10 -61 38 -89 19 -20 50
-40 70 -45 48 -14 3572 -14 3620 0 20 5 51 26 70 45 30 31 35 43 38 99 5 72
-11 112 -57 145 l-29 21 -1835 0 -1836 0 -35 -33z"/>
<path d="M317 4015 c-174 -349 -317 -640 -317 -645 0 -7 864 -10 2560 -10
1696 0 2560 3 2560 10 0 5 -143 296 -317 645 l-318 635 -1925 0 -1925 0 -318
-635z m1013 365 c11 -11 20 -33 20 -50 0 -33 -317 -677 -345 -700 -42 -34
-115 -2 -115 52 0 31 309 659 343 696 26 28 70 29 97 2z m640 0 c11 -11 20
-33 20 -50 0 -33 -317 -677 -345 -700 -42 -34 -115 -2 -115 52 0 31 309 659
343 696 26 28 70 29 97 2z m639 1 c29 -29 33 -78 29 -413 -3 -301 -3 -308 -25
-329 -13 -14 -34 -22 -53 -22 -19 0 -40 8 -53 22 -22 21 -22 28 -25 329 -4
340 0 383 31 412 27 25 71 26 96 1z m603 7 c30 -23 378 -673 378 -705 0 -17
-9 -38 -20 -48 -25 -22 -75 -24 -96 -3 -32 32 -374 671 -374 699 0 54 70 89
112 57z m669 -1 c27 -20 349 -673 349 -706 0 -58 -72 -87 -118 -48 -26 21
-342 666 -342 697 0 55 68 90 111 57z"/>
<path d="M2 3053 c6 -184 21 -239 97 -356 76 -115 179 -199 305 -248 l71 -28
3 -1045 2 -1046 -183 0 c-158 0 -187 -2 -217 -19 -54 -28 -80 -74 -80 -141 0
-63 22 -106 73 -144 l28 -21 2436 -3 c1582 -1 2448 1 2472 8 20 5 52 26 71 45
31 32 35 42 38 103 3 57 0 72 -20 101 -44 64 -70 71 -275 71 l-183 0 0 1048 0
1047 61 19 c163 51 315 201 385 381 25 63 28 86 32 228 l4 157 -2562 0 -2562
0 4 -157z m1288 -141 c0 -39 44 -146 89 -215 76 -115 179 -199 305 -248 l71
-28 3 -1045 2 -1046 -480 0 -480 0 0 1048 0 1047 61 19 c115 36 245 138 318
249 41 64 91 182 91 217 0 11 5 20 10 20 6 0 10 -8 10 -18z m1287 -34 c38
-161 178 -332 334 -406 109 -52 172 -66 289 -66 116 0 180 14 290 66 156 74
294 243 332 406 12 51 28 70 28 34 0 -39 44 -146 89 -215 76 -115 179 -199
305 -248 l71 -28 3 -1045 2 -1046 -1200 0 -1200 0 0 1034 0 1034 58 7 c94 11
142 25 232 67 156 74 294 243 332 406 7 28 15 52 18 52 3 0 11 -24 17 -52z"/>
<path d="M1360 1911 c-53 -28 -80 -74 -80 -138 0 -60 17 -101 55 -131 l25 -20
0 -176 c0 -173 0 -176 -24 -191 -41 -27 -59 -74 -54 -143 4 -54 9 -67 38 -97
66 -68 164 -70 233 -5 37 34 41 42 45 100 5 71 -12 118 -54 145 -24 15 -24 18
-24 191 l0 176 25 20 c38 30 55 71 55 131 0 93 -65 157 -160 157 -25 0 -61 -8
-80 -19z"/>
<path d="M2912 1897 c-122 -122 -222 -227 -222 -232 0 -13 102 -115 115 -115
13 0 455 442 455 455 0 13 -102 115 -115 115 -6 0 -110 -100 -233 -223z"/>
<path d="M3137 1672 c-246 -246 -447 -452 -447 -457 0 -6 26 -36 58 -68 l57
-57 453 453 c248 248 452 457 452 462 0 13 -102 115 -115 115 -6 0 -211 -201
-458 -448z"/>
<path d="M3365 1440 l-230 -230 60 -60 60 -60 227 227 c126 125 228 233 228
238 0 10 -101 115 -110 115 -3 0 -109 -103 -235 -230z"/>
</g>
</svg>
