<?xml version="1.0" standalone="no"?>
<!DOCTYPE svg PUBLIC "-//W3C//DTD SVG 20010904//EN"
 "http://www.w3.org/TR/2001/REC-SVG-20010904/DTD/svg10.dtd">
<svg version="1.0" xmlns="http://www.w3.org/2000/svg"
 width="31px" height="24px" viewBox="0 0 4096.000000 4096.000000"
 preserveAspectRatio="xMidYMid meet">
 <style type="text/css">
    <![CDATA[
    	.red { fill: #b71c1c; }
    ]]>
</style>
<g class="red" transform="translate(0.000000,4096.000000) scale(0.100000,-0.100000)"
fill="#000000" stroke="none">
<path d="M7680 20485 l0 -9655 12800 0 12800 0 0 9655 0 9655 -12800 0 -12800
0 0 -9655z m22209 7368 c-273 -274 -2149 -2163 -4169 -4198 -4583 -4617 -4452
-4486 -4558 -4549 -97 -57 -231 -110 -351 -137 -112 -26 -340 -36 -452 -20
-205 29 -405 107 -539 209 -36 27 -403 391 -815 808 -781 789 -7906 8005
-8144 8247 l-135 137 9829 0 9830 0 -496 -497z m-16991 -4261 c1669 -1689
3033 -3074 3031 -3079 -1 -4 -1438 -1474 -3193 -3266 -1755 -1792 -3208 -3276
-3228 -3299 l-38 -41 1 6579 0 6579 197 -201 c108 -111 1562 -1583 3230 -3272z
m18592 -3180 l0 -6499 -203 206 c-112 113 -1243 1270 -2513 2571 -1270 1301
-2619 2682 -2997 3069 -378 387 -686 707 -685 712 2 4 620 627 1373 1386 754
758 2192 2205 3195 3216 1004 1010 1826 1837 1827 1837 2 0 3 -2924 3 -6498z
m-12835 -2625 c650 -522 1527 -746 2375 -606 482 80 919 265 1310 556 94 70
239 210 798 771 l684 685 53 -54 c29 -30 1091 -1118 2361 -2419 1269 -1301
2592 -2655 2938 -3010 346 -355 728 -745 849 -867 l220 -223 -9763 0 -9763 0
245 248 c135 136 1295 1320 2579 2632 1283 1312 2628 2686 2989 3054 360 367
657 673 659 679 2 6 315 -302 695 -685 380 -383 727 -726 771 -761z"/>
</g>
</svg>
