<?xml version="1.0" standalone="no"?>
<!DOCTYPE svg PUBLIC "-//W3C//DTD SVG 20010904//EN"
 "http://www.w3.org/TR/2001/REC-SVG-20010904/DTD/svg10.dtd">
<svg version="1.0" xmlns="http://www.w3.org/2000/svg"
 width="30px" height="30px" viewBox="0 0 2400.000000 2400.000000"
 preserveAspectRatio="xMidYMid meet">
<style type="text/css">
    <![CDATA[
    	.red { fill: #b71c1c; }
    ]]>
</style>
<g class="red" transform="translate(0.000000,2400.000000) scale(0.100000,-0.100000)"
fill="#000000" stroke="none">
<path d="M11365 23990 c-1173 -73 -2204 -271 -3230 -621 -3512 -1197 -6276
-3948 -7486 -7452 -313 -906 -519 -1866 -603 -2817 -37 -416 -41 -522 -41
-1100 0 -578 4 -684 41 -1100 216 -2439 1194 -4773 2788 -6655 1826 -2157
4358 -3606 7117 -4074 731 -124 1290 -171 2049 -171 525 0 889 19 1350 71
3133 350 5987 1915 7989 4383 362 446 731 979 1028 1486 887 1515 1425 3194
1587 4955 36 393 41 516 41 1105 0 589 -5 712 -41 1105 -162 1761 -700 3440
-1587 4955 -800 1367 -1874 2573 -3141 3529 -1290 973 -2744 1667 -4316 2060
-662 166 -1311 269 -2060 327 -237 19 -1254 28 -1485 14z m1195 -1511 c1881
-93 3725 -711 5305 -1777 1789 -1207 3176 -2953 3943 -4962 490 -1285 725
-2678 682 -4037 -17 -534 -55 -935 -136 -1423 -466 -2830 -2087 -5355 -4477
-6974 -1479 -1002 -3168 -1603 -4952 -1761 -586 -51 -1262 -51 -1850 0 -1774
157 -3465 757 -4940 1753 -1719 1161 -3057 2804 -3850 4727 -372 902 -623
1905 -725 2900 -53 513 -67 1213 -36 1710 91 1422 439 2738 1056 3990 343 695
731 1308 1208 1907 405 507 881 1003 1367 1421 1113 958 2430 1681 3820 2098
674 202 1344 333 2045 398 509 47 998 57 1540 30z"/>
<path d="M16315 18474 c-125 -19 -346 -75 -494 -124 -481 -160 -1565 -767
-2596 -1453 -839 -559 -1571 -1157 -2485 -2032 -550 -526 -1440 -1423 -1870
-1885 -940 -1010 -1538 -1798 -2278 -3005 -388 -634 -764 -1332 -889 -1650
-59 -149 -122 -366 -159 -540 -35 -164 -45 -442 -20 -564 36 -175 107 -310
236 -444 90 -96 184 -172 485 -394 708 -523 1132 -777 1423 -853 205 -54 394
-8 602 147 134 98 618 557 1385 1309 665 654 830 834 919 1009 84 163 87 304
10 456 -40 79 -276 427 -385 569 -58 74 -152 196 -209 270 -224 290 -369 535
-410 695 -57 221 20 515 198 764 112 156 365 462 534 646 560 610 1781 1829
2348 2345 140 127 459 387 591 482 194 139 420 218 625 218 189 0 457 -138
834 -430 74 -57 196 -151 270 -209 142 -109 490 -345 569 -385 212 -108 414
-59 681 163 217 181 1532 1517 1945 1976 239 266 315 412 315 609 0 308 -251
756 -943 1684 -103 139 -229 295 -279 348 -147 154 -297 240 -480 278 -96 20
-345 20 -473 0z"/>
</g>
</svg>
