<?xml version="1.0" standalone="no"?>
<!DOCTYPE svg PUBLIC "-//W3C//DTD SVG 20010904//EN"
 "http://www.w3.org/TR/2001/REC-SVG-20010904/DTD/svg10.dtd">
<svg version="1.0" xmlns="http://www.w3.org/2000/svg"
 width="512.000000pt" height="512.000000pt" viewBox="0 0 512.000000 512.000000"
 preserveAspectRatio="xMidYMid meet">
<style type="text/css">
    <![CDATA[
    .red { fill: #b71c1c; }
    ]]>
  </style>
<g class="red" transform="translate(0.000000,512.000000) scale(0.100000,-0.100000)"
fill="#000000" stroke="none">
<path d="M2395 4609 c-354 -51 -683 -288 -845 -609 -88 -175 -123 -324 -122
-525 2 -403 170 -820 684 -1690 68 -115 195 -332 283 -482 88 -150 165 -272
170 -272 6 0 82 122 170 272 88 150 215 367 283 482 514 870 682 1287 684
1690 1 201 -34 350 -122 525 -218 431 -699 679 -1185 609z m253 -709 c204 -48
349 -258 313 -456 -24 -128 -110 -243 -226 -300 -55 -27 -69 -29 -170 -29
-101 0 -115 2 -170 29 -160 79 -254 257 -225 425 39 225 263 380 478 331z"/>
<path d="M1749 1557 c-58 -24 -132 -58 -164 -77 -87 -52 -187 -150 -226 -222
-32 -60 -34 -68 -34 -163 0 -89 3 -106 28 -157 106 -217 407 -363 882 -430
118 -17 542 -17 660 0 475 67 776 213 882 430 25 51 28 68 28 157 0 95 -2 103
-34 163 -39 72 -139 170 -226 222 -62 36 -260 120 -285 120 -13 0 -160 -232
-168 -266 -2 -7 5 -15 15 -17 139 -41 178 -54 239 -83 76 -36 144 -99 144
-135 0 -103 -213 -207 -541 -263 -47 -8 -154 -20 -236 -26 -491 -36 -1073 119
-1073 285 0 72 128 151 343 211 35 9 57 21 55 28 -8 34 -155 266 -168 266 -8
0 -63 -20 -121 -43z"/>
</g>
</svg>
