<?xml version="1.0" standalone="no"?>
<!DOCTYPE svg PUBLIC "-//W3C//DTD SVG 20010904//EN"
 "http://www.w3.org/TR/2001/REC-SVG-20010904/DTD/svg10.dtd">
<svg version="1.0" xmlns="http://www.w3.org/2000/svg"
 width="30px" height="30px" viewBox="0 0 512.000000 512.000000"
 preserveAspectRatio="xMidYMid meet">
<style type="text/css">
    <![CDATA[
    	.red { fill: #b71c1c; }
    ]]>
</style>
<g class="red" transform="translate(0.000000,512.000000) scale(0.100000,-0.100000)"
fill="#000000" stroke="none">
<path d="M2400 5084 c-536 -46 -965 -207 -1377 -515 -126 -95 -377 -346 -472
-472 -272 -364 -432 -750 -497 -1202 -24 -165 -24 -505 0 -670 65 -452 225
-838 497 -1202 94 -125 346 -377 469 -469 370 -277 748 -434 1205 -500 165
-24 505 -24 670 0 457 66 835 223 1205 500 122 91 375 344 466 466 277 370
434 748 500 1205 24 165 24 505 0 670 -66 457 -223 835 -500 1205 -91 122
-344 375 -466 466 -362 271 -741 431 -1174 495 -125 18 -428 32 -526 23z m-23
-521 c-30 -35 -50 -131 -44 -215 13 -162 105 -248 250 -235 68 6 127 40 164
95 48 73 55 240 12 324 -11 22 -19 42 -17 44 2 2 49 -3 103 -12 887 -131 1587
-830 1720 -1719 19 -124 19 -121 -2 -102 -35 30 -131 50 -215 44 -162 -13
-248 -105 -235 -250 6 -68 40 -127 95 -164 73 -48 240 -55 324 -12 22 11 42
19 44 17 2 -3 -3 -49 -11 -104 -132 -887 -831 -1586 -1720 -1719 -124 -19
-121 -19 -102 3 30 34 50 130 44 214 -13 162 -105 248 -250 235 -68 -6 -127
-40 -164 -95 -48 -73 -55 -240 -12 -324 11 -22 19 -42 17 -44 -3 -2 -49 3
-104 11 -888 132 -1587 833 -1719 1722 -18 126 -19 119 3 100 34 -30 130 -50
214 -44 162 13 248 105 235 250 -6 68 -40 127 -95 164 -73 48 -240 55 -324 12
-22 -11 -42 -19 -44 -17 -2 2 3 49 12 103 130 883 826 1583 1709 1719 130 20
132 20 112 -1z"/>
<path d="M2486 3909 c-57 -44 -57 -45 -84 -588 l-26 -505 -35 -30 c-19 -17
-47 -58 -63 -91 -23 -49 -28 -73 -28 -136 0 -64 5 -85 30 -137 52 -104 154
-171 260 -172 l55 -1 303 -269 c319 -284 342 -300 416 -286 50 9 103 59 116
107 16 60 -2 109 -69 187 -32 37 -155 179 -274 316 -207 237 -217 251 -217
290 0 56 -48 153 -96 195 l-39 35 -22 499 c-14 315 -26 511 -34 529 -6 15 -25
40 -41 53 -39 33 -113 35 -152 4z"/>
</g>
</svg>
