<?xml version="1.0" standalone="no"?>
<!DOCTYPE svg PUBLIC "-//W3C//DTD SVG 20010904//EN"
 "http://www.w3.org/TR/2001/REC-SVG-20010904/DTD/svg10.dtd">
<svg version="1.0" xmlns="http://www.w3.org/2000/svg"
 width="28px" height="29px" viewBox="0 0 512.000000 512.000000"
 preserveAspectRatio="xMidYMid meet">
<style type="text/css">
    <![CDATA[
    .red { fill: #b71c1c; }
    ]]>
  </style>
<g class="red" transform="translate(0.000000,512.000000) scale(0.100000,-0.100000)"
fill="#000000" stroke="none">
<path d="M1535 5106 c-103 -33 -216 -117 -366 -273 -139 -145 -189 -251 -189
-401 0 -256 135 -484 363 -612 42 -23 56 -37 53 -49 -3 -9 -10 -63 -15 -121
-10 -105 -1 -264 19 -355 17 -74 62 -208 86 -256 l23 -46 -547 -288 c-301
-158 -571 -303 -600 -322 -144 -96 -197 -233 -147 -384 49 -147 144 -220 290
-221 110 0 123 4 678 234 120 49 221 88 223 85 3 -3 -3 -79 -14 -169 -11 -89
-19 -163 -18 -164 0 -1 42 3 91 8 143 14 310 -7 429 -54 60 -23 72 -19 80 24
27 145 185 299 373 365 70 25 91 28 213 28 122 0 143 -3 213 -28 188 -66 346
-220 373 -365 8 -43 20 -47 80 -24 119 47 286 68 429 54 50 -5 91 -9 91 -8 1
1 -7 75 -18 164 -11 90 -17 166 -14 169 2 3 103 -36 223 -85 555 -230 568
-234 678 -234 146 1 241 74 290 221 50 151 -3 288 -147 384 -29 19 -299 164
-600 322 l-547 288 23 46 c24 47 69 182 86 255 20 91 29 251 19 356 -5 58 -12
112 -15 121 -3 12 11 26 53 49 230 129 363 355 363 612 0 150 -50 256 -189
401 -120 124 -228 212 -311 251 -57 27 -78 31 -172 34 -265 10 -498 -120 -624
-346 l-36 -64 -61 9 c-34 4 -118 8 -187 8 -69 0 -153 -4 -187 -8 l-61 -9 -36
64 c-122 219 -347 348 -601 347 -55 0 -118 -6 -140 -13z m224 -402 c40 -11 68
-30 112 -73 32 -31 59 -62 59 -67 0 -6 -21 -26 -47 -45 -122 -87 -216 -183
-318 -323 l-20 -28 -43 32 c-77 56 -134 182 -116 256 7 29 157 183 228 235 45
33 71 35 145 13z m1761 -25 c86 -68 207 -194 214 -224 18 -73 -39 -199 -116
-255 l-43 -32 -20 28 c-102 140 -196 236 -317 323 -27 19 -48 39 -48 45 0 5
27 36 59 67 42 41 73 62 108 73 80 24 105 21 163 -25z m-755 -699 c216 -67
392 -241 465 -460 31 -92 38 -262 16 -361 -72 -323 -354 -550 -686 -550 -332
0 -614 227 -686 550 -22 99 -15 269 16 361 82 246 285 426 541 480 74 15 255
5 334 -20z"/>
<path d="M2509 3779 c-90 -14 -176 -76 -221 -162 -33 -62 -33 -203 0 -267 57
-109 148 -164 272 -164 124 0 215 55 272 164 33 64 33 205 0 267 -62 118 -191
183 -323 162z"/>
<path d="M1515 1550 c-253 -54 -442 -259 -502 -544 -20 -96 -13 -304 14 -401
76 -271 258 -478 499 -567 49 -18 81 -22 194 -22 123 0 141 2 202 26 90 36
162 84 228 152 137 140 203 318 201 546 -1 249 -93 467 -265 627 -138 128
-262 182 -431 188 -55 2 -118 0 -140 -5z"/>
<path d="M3345 1545 c-218 -55 -427 -249 -515 -477 -46 -118 -62 -208 -62
-343 0 -323 160 -577 430 -683 60 -23 81 -26 197 -26 117 -1 138 2 203 26 99
36 170 80 254 157 81 75 136 152 188 265 62 132 75 199 75 376 0 135 -3 165
-23 230 -39 124 -98 227 -177 306 -77 78 -134 115 -234 152 -85 31 -246 39
-336 17z"/>
</g>
</svg>
