<?xml version="1.0" standalone="no"?>
<!DOCTYPE svg PUBLIC "-//W3C//DTD SVG 20010904//EN"
 "http://www.w3.org/TR/2001/REC-SVG-20010904/DTD/svg10.dtd">
<svg version="1.0" xmlns="http://www.w3.org/2000/svg"
 width="25px" height="34px" viewBox="0 0 512.000000 512.000000"
 preserveAspectRatio="xMidYMid meet">
<style type="text/css">
    <![CDATA[
    .red { fill: #b71c1c; }
    ]]>
  </style>
<g class="red" transform="translate(0.000000,512.000000) scale(0.100000,-0.100000)"
fill="#000000" stroke="none">
<path d="M1702 5102 c-88 -47 -205 -173 -249 -268 -103 -223 -77 -477 69 -672
l39 -53 -32 -55 c-37 -65 -23 -76 -129 109 -40 71 -85 137 -98 148 -60 47
-151 11 -265 -106 -112 -115 -166 -245 -174 -415 -8 -166 36 -306 131 -424
l43 -52 -19 -34 c-12 -24 -16 -45 -12 -65 3 -16 238 -423 521 -903 l515 -873
-56 -657 c-31 -361 -56 -671 -56 -689 0 -22 9 -41 31 -62 l31 -31 568 0 568 0
31 31 c22 21 31 40 31 62 0 18 -25 328 -56 689 l-56 658 515 872 c283 480 518
887 521 903 4 20 0 41 -12 65 l-19 34 43 52 c95 118 139 258 131 424 -8 170
-62 300 -174 415 -114 117 -205 153 -265 106 -13 -11 -58 -77 -98 -148 -106
-185 -92 -174 -129 -109 l-32 55 40 53 c92 123 137 270 128 422 -9 170 -72
309 -191 426 -108 106 -195 135 -253 86 -15 -13 -64 -87 -108 -165 -67 -119
-82 -138 -92 -125 -6 9 -46 76 -89 150 -42 74 -86 141 -97 149 -35 25 -97 19
-149 -14 -59 -38 -124 -96 -158 -143 l-27 -36 -56 63 c-77 87 -167 145 -221
145 -23 0 -51 -7 -63 -15 -11 -8 -55 -75 -97 -149 -43 -74 -83 -141 -89 -150
-10 -13 -25 6 -92 125 -44 78 -93 152 -108 165 -35 29 -88 32 -135 6z m133
-417 c54 -93 107 -180 118 -192 28 -31 81 -40 122 -20 26 13 52 49 136 196 57
99 109 179 114 178 20 -7 74 -87 96 -144 33 -82 33 -224 1 -303 -30 -74 -48
-98 -64 -82 -7 7 -31 12 -53 12 -56 0 -142 -56 -220 -142 l-58 -66 -37 47
c-39 49 -101 103 -163 140 -36 22 -86 26 -136 10 -15 -5 -54 63 -72 126 -26
93 -5 236 47 321 18 29 68 93 70 90 1 0 46 -77 99 -171z m1622 75 c51 -86 70
-223 44 -316 -18 -62 -57 -130 -72 -125 -50 16 -100 12 -136 -10 -62 -37 -124
-91 -163 -140 l-37 -47 -58 66 c-78 86 -164 142 -220 142 -22 0 -46 -5 -53
-12 -16 -16 -34 8 -64 82 -32 79 -32 221 1 303 22 57 76 137 96 144 6 1 57
-78 113 -177 80 -138 111 -184 134 -196 36 -19 91 -13 119 12 11 9 65 97 121
194 l101 177 27 -31 c14 -17 36 -47 47 -66z m-2035 -1057 c30 -32 83 -40 123
-19 25 14 56 59 136 197 57 98 108 178 113 176 17 -6 85 -111 101 -156 65
-189 -18 -407 -195 -507 -166 -95 -380 -60 -510 83 -144 158 -153 373 -23 544
l36 48 99 -172 c55 -95 109 -182 120 -194z m2578 242 c159 -316 -137 -680
-481 -591 -235 62 -373 318 -294 547 16 45 84 150 101 156 5 2 56 -78 113
-176 115 -198 136 -220 204 -207 47 9 64 30 177 228 l95 166 27 -32 c15 -17
41 -58 58 -91z m-1623 -67 c101 -176 129 -208 183 -208 52 0 83 33 164 176 44
76 91 156 104 178 l24 38 24 -23 c60 -56 104 -172 104 -273 0 -145 -61 -262
-179 -347 -234 -168 -561 -51 -647 230 -29 97 -13 228 39 321 26 45 68 91 78
85 4 -3 52 -82 106 -177z m1430 -770 c-8 -23 -889 -1513 -902 -1526 -8 -9 -32
-12 -72 -10 l-60 3 108 465 c60 256 109 484 109 507 0 59 -31 93 -93 100 -43
5 -49 3 -80 -28 -32 -33 -36 -46 -142 -506 -60 -260 -111 -473 -115 -473 -4 0
-55 213 -115 473 -106 460 -110 473 -142 506 -31 31 -37 33 -80 28 -62 -7 -93
-41 -93 -100 0 -23 49 -251 109 -507 l108 -465 -60 -3 c-40 -2 -64 1 -72 10
-13 13 -894 1503 -902 1526 -4 9 249 12 1247 12 998 0 1251 -3 1247 -12z
m-1357 -2093 c0 -381 3 -400 59 -429 38 -20 64 -20 102 0 56 29 59 48 59 429
l0 345 100 0 c55 0 100 -4 100 -8 0 -16 89 -1066 94 -1104 l4 -38 -408 0 -408
0 4 38 c5 38 94 1088 94 1104 0 4 45 8 100 8 l100 0 0 -345z"/>
</g>
</svg>
