<?xml version="1.0" standalone="no"?>
<!DOCTYPE svg PUBLIC "-//W3C//DTD SVG 20010904//EN"
 "http://www.w3.org/TR/2001/REC-SVG-20010904/DTD/svg10.dtd">
<svg version="1.0" xmlns="http://www.w3.org/2000/svg"
 width="23px" height="30px" viewBox="0 0 512.000000 512.000000"
 preserveAspectRatio="xMidYMid meet">
<style type="text/css">
    <![CDATA[
    .red { fill: #b71c1c; }
    ]]>
  </style>
<g class="red" transform="translate(0.000000,512.000000) scale(0.100000,-0.100000)"
fill="#000000" stroke="none">
<path d="M2336 5104 c-364 -81 -639 -350 -732 -714 -28 -110 -26 -364 4 -473
26 -94 89 -232 138 -299 19 -28 33 -52 31 -55 -3 -2 -42 7 -87 21 -111 36
-124 34 -175 -18 -50 -52 -57 -88 -42 -202 5 -39 7 -88 3 -109 -9 -47 -55 -95
-91 -95 -36 0 -92 -25 -103 -47 -22 -44 -22 -87 4 -191 23 -95 25 -112 15
-158 -14 -62 -28 -76 -103 -105 l-57 -21 -106 37 c-58 21 -105 41 -105 46 0
18 47 39 87 39 33 0 50 7 75 29 33 29 33 30 33 123 0 64 -6 110 -18 147 -36
108 -2 183 89 194 94 10 124 73 106 222 -13 106 -3 153 41 187 12 9 20 18 17
21 -3 2 -68 22 -146 45 -110 33 -157 42 -215 42 -259 0 -443 -162 -509 -449
-35 -151 33 -388 139 -484 40 -36 37 -35 535 -223 269 -101 294 -113 343 -157
107 -99 148 -252 108 -407 -72 -281 -212 -631 -307 -772 -55 -80 -78 -144 -78
-211 0 -42 5 -54 33 -82 37 -37 73 -49 210 -71 98 -16 127 -29 153 -69 15 -23
15 -30 2 -78 -32 -111 8 -169 144 -211 46 -14 98 -35 116 -46 41 -25 66 -81
57 -127 -3 -18 -3 -33 1 -33 4 0 102 67 219 149 229 161 251 171 380 171 129
0 151 -10 380 -171 117 -82 215 -149 219 -149 4 0 4 15 1 34 -15 78 43 135
182 175 125 37 169 98 141 196 -8 28 -12 60 -10 73 6 41 60 70 159 86 137 22
173 34 210 71 28 28 33 40 33 82 0 26 -4 64 -10 82 -5 19 -9 36 -7 37 1 2 25
-12 52 -30 28 -18 66 -39 86 -46 40 -14 49 -37 49 -123 0 -99 -87 -168 -235
-184 -59 -7 -110 -31 -144 -67 -22 -23 -23 -30 -16 -78 15 -103 12 -118 -33
-158 -28 -25 -63 -43 -114 -58 -41 -12 -90 -32 -109 -44 -44 -30 -71 -83 -65
-125 5 -32 5 -33 -20 -17 -13 9 -24 12 -24 8 1 -9 91 -76 211 -155 39 -26 108
-59 157 -75 82 -27 96 -29 252 -28 145 0 173 3 230 23 167 59 323 202 434 399
66 117 82 284 40 405 -25 72 -102 150 -188 191 -84 39 -91 41 -267 70 -129 22
-178 38 -275 93 -28 16 -80 84 -132 173 -58 99 -181 424 -243 641 -42 147 -39
244 9 341 58 118 58 118 518 292 227 85 425 161 441 170 75 38 150 164 177
298 21 102 20 153 -4 249 -56 220 -179 355 -367 404 -64 17 -195 20 -239 6
-16 -6 -75 -24 -132 -41 l-102 -31 27 -36 c25 -33 27 -41 24 -112 -8 -166 -6
-199 15 -228 19 -26 61 -45 126 -58 61 -12 81 -95 49 -199 -36 -118 -24 -232
30 -270 14 -9 43 -16 71 -16 36 0 52 -5 68 -22 l21 -23 -32 -13 c-18 -8 -67
-26 -109 -41 l-76 -28 -67 26 c-37 14 -74 36 -83 49 -25 37 -29 119 -8 192 10
36 19 96 19 133 0 62 -3 71 -27 92 -15 13 -46 26 -70 30 -58 10 -83 29 -103
77 -14 36 -15 53 -4 129 6 48 9 103 5 123 -9 48 -49 93 -96 107 -34 10 -51 8
-158 -25 -67 -20 -126 -36 -131 -36 -6 0 10 27 35 60 60 80 128 226 156 336
26 105 31 320 9 419 -59 266 -215 488 -447 633 -58 37 -149 76 -244 104 -90
27 -354 34 -454 12z m602 -500 c68 -34 96 -78 89 -142 -4 -37 -12 -53 -41 -79
-19 -18 -47 -35 -61 -39 -38 -9 -95 10 -139 48 -32 28 -39 41 -43 82 -7 61 14
104 65 134 48 28 67 27 130 -4z m-581 -14 c45 -27 66 -64 66 -116 0 -147 -202
-181 -257 -43 -46 115 84 224 191 159z m-78 -710 c201 -102 494 -68 634 73 26
27 47 43 47 37 0 -6 4 -9 9 -5 14 8 25 -58 17 -103 -12 -77 -105 -166 -214
-205 -154 -54 -348 -38 -480 39 -124 73 -181 168 -156 261 6 21 9 19 53 -26
26 -27 67 -59 90 -71z"/>
<path d="M1206 1180 c-57 -43 -131 -67 -275 -89 -241 -37 -364 -107 -425 -242
-33 -71 -42 -153 -27 -249 14 -90 43 -155 112 -255 107 -155 238 -265 373
-314 65 -23 85 -25 236 -26 146 0 174 3 240 23 101 32 149 58 255 137 l90 67
-4 47 c-7 93 -40 124 -181 167 -134 41 -175 101 -139 203 26 74 -37 132 -166
155 -94 16 -138 33 -182 70 -40 34 -51 72 -45 157 4 65 4 66 41 78 42 15 141
79 141 92 0 12 1 12 -44 -21z"/>
</g>
</svg>
