<?xml version="1.0" standalone="no"?>
<!DOCTYPE svg PUBLIC "-//W3C//DTD SVG 20010904//EN"
 "http://www.w3.org/TR/2001/REC-SVG-20010904/DTD/svg10.dtd">
<svg version="1.0" xmlns="http://www.w3.org/2000/svg"
 width="27px" height="29px" viewBox="0 0 1600.000000 1600.000000"
 preserveAspectRatio="xMidYMid meet">
<style type="text/css">
    <![CDATA[
    .red { fill: #b71c1c; }
    ]]>
  </style>
<g class="red" transform="translate(0.000000,1600.000000) scale(0.100000,-0.100000)"
fill="#000000" stroke="none">
<path d="M7610 15989 c-450 -55 -869 -226 -1220 -497 -116 -90 -306 -277 -399
-392 -278 -346 -451 -745 -517 -1195 -22 -146 -24 -484 -5 -625 77 -567 327
-1064 728 -1450 271 -261 561 -436 918 -555 260 -86 496 -125 765 -125 554 0
1075 184 1525 538 39 31 126 112 195 181 378 380 608 848 686 1396 20 142 22
453 5 590 -57 441 -217 838 -482 1192 -94 126 -336 367 -461 461 -256 192
-545 333 -838 411 -219 58 -333 73 -590 76 -129 2 -269 -1 -310 -6z m-531
-1654 c87 -21 155 -59 222 -126 183 -182 183 -476 1 -658 -187 -188 -476 -188
-663 -2 -255 256 -138 692 210 783 82 21 148 22 230 3z m1803 4 c362 -75 499
-526 240 -787 -182 -183 -463 -191 -650 -17 -102 95 -152 209 -152 345 1 132
43 234 136 328 115 116 270 163 426 131z m-1843 -1733 c15 -8 53 -46 84 -84
193 -240 563 -356 947 -297 245 37 429 135 571 304 64 75 73 81 130 81 77 0
149 -52 164 -119 24 -109 -223 -350 -473 -462 -86 -39 -208 -75 -322 -96 -144
-25 -402 -23 -548 6 -246 48 -439 142 -611 297 -72 65 -149 168 -157 211 -9
50 11 106 51 142 30 26 44 31 86 31 27 0 63 -6 78 -14z"/>
<path d="M1687 12059 c-209 -31 -423 -124 -591 -259 -416 -335 -560 -909 -347
-1390 135 -307 411 -551 739 -654 144 -45 648 -165 655 -155 8 10 700 2249
696 2253 -2 1 -110 27 -239 55 -129 29 -300 70 -380 92 -234 63 -386 80 -533
58z"/>
<path d="M13765 12061 c-27 -5 -114 -27 -191 -49 -78 -22 -257 -67 -399 -98
l-257 -58 6 -26 c6 -33 687 -2223 692 -2229 10 -11 609 136 706 173 602 226
918 852 733 1446 -130 416 -500 741 -937 825 -99 19 -283 27 -353 16z"/>
<path d="M3081 10612 c-190 -609 -347 -1117 -349 -1129 -2 -13 -2 -23 2 -23 3
0 124 -25 268 -56 145 -30 520 -109 833 -174 891 -186 1047 -220 1098 -236 31
-10 69 -36 108 -71 99 -92 162 -246 188 -463 7 -50 11 -316 11 -652 0 -560 0
-569 -25 -713 -145 -843 -755 -3109 -1164 -4327 -33 -98 -59 -178 -58 -178 1
0 531 -176 1177 -390 646 -214 1175 -388 1176 -387 12 12 941 2122 1090 2474
113 269 148 340 208 419 66 88 155 144 229 144 19 0 61 -14 95 -31 120 -59
191 -168 347 -531 139 -325 986 -2237 1085 -2449 l12 -27 1157 385 c636 212
1160 389 1164 393 5 4 -32 133 -82 286 -432 1336 -1002 3514 -1123 4294 -18
118 -18 1175 0 1305 38 268 123 435 256 500 60 29 469 118 2219 482 24 5 28
10 23 29 -17 68 -689 2220 -695 2227 -5 4 -140 -17 -301 -48 -1457 -274 -3436
-525 -4150 -525 -692 0 -2539 230 -4018 501 -151 27 -305 56 -343 64 -39 8
-76 15 -82 15 -7 0 -153 -455 -356 -1108z m4985 -553 c106 -32 191 -84 275
-168 160 -160 227 -372 185 -581 -52 -253 -230 -437 -490 -502 -66 -17 -100
-20 -191 -15 -183 9 -311 64 -440 192 -197 196 -240 493 -108 748 57 110 183
232 293 285 47 22 110 45 140 51 30 6 64 13 75 15 42 10 194 -4 261 -25z m-21
-2624 c221 -56 406 -232 471 -450 13 -43 18 -92 18 -175 0 -102 -4 -125 -30
-201 -60 -169 -179 -306 -329 -380 -107 -52 -181 -70 -296 -70 -195 -1 -353
70 -488 218 -197 214 -226 540 -70 779 83 128 238 239 389 278 74 20 260 20
335 1z"/>
<path d="M3765 1923 c-74 -231 -87 -296 -92 -456 -4 -94 -1 -176 7 -225 41
-255 153 -476 335 -657 240 -240 550 -358 900 -342 201 10 342 48 523 142 257
133 479 393 567 665 10 30 35 95 57 144 21 49 37 90 36 91 -6 5 -2275 755
-2285 755 -6 0 -27 -53 -48 -117z"/>
<path d="M10786 1665 c-615 -206 -1121 -376 -1124 -379 -2 -3 3 -23 11 -45 9
-22 28 -80 42 -130 119 -424 480 -753 930 -846 113 -24 293 -30 411 -15 529
66 947 478 1025 1010 16 111 6 322 -19 420 -34 128 -125 360 -142 359 -8 0
-518 -169 -1134 -374z"/>
</g>
</svg>
