<?xml version="1.0" standalone="no"?>
<!DOCTYPE svg PUBLIC "-//W3C//DTD SVG 20010904//EN"
 "http://www.w3.org/TR/2001/REC-SVG-20010904/DTD/svg10.dtd">
<svg version="1.0" xmlns="http://www.w3.org/2000/svg"
 width="25px" height="25px" viewBox="0 0 100.000000 100.000000"
 preserveAspectRatio="xMidYMid meet">
<style type="text/css">
    <![CDATA[
    .red { fill: #b71c1c; }
    ]]>
  </style>
<g class="red" transform="translate(0.000000,100.000000) scale(0.100000,-0.100000)"
fill="#000000" stroke="none">
<path d="M467 932 c-4 -19 -20 -38 -47 -56 -24 -16 -48 -42 -56 -62 -9 -20
-21 -34 -32 -34 -9 0 -34 -11 -55 -25 -32 -23 -37 -31 -37 -66 0 -117 81 -176
260 -188 109 -8 107 -26 -3 -26 -142 1 -239 51 -273 140 -19 52 -35 56 -84 23
-55 -38 -74 -71 -78 -141 -3 -51 1 -70 20 -107 56 -104 220 -151 418 -119 82
13 130 34 209 93 84 61 108 67 136 32 l21 -26 26 27 c31 33 51 101 42 140 -18
78 -70 134 -167 183 -41 20 -53 32 -64 64 -19 55 -56 101 -116 141 -67 45
-112 48 -120 7z"/>
<path d="M754 361 c-39 -28 -40 -30 -52 -116 -12 -93 -16 -105 -32 -89 -6 6
-6 32 1 73 5 35 8 66 5 68 -2 2 -18 -3 -35 -12 -26 -13 -31 -21 -31 -53 0 -50
-10 -84 -23 -79 -7 2 -10 23 -8 51 3 47 2 47 -26 44 -25 -3 -29 -8 -33 -47 -7
-62 -30 -67 -30 -6 0 44 -2 47 -22 41 -13 -3 -26 -6 -30 -6 -5 0 -8 -18 -8
-41 0 -52 -24 -48 -28 4 -3 35 -5 37 -37 37 -33 0 -33 -1 -25 -31 5 -18 7 -36
4 -40 -11 -19 -22 -7 -33 36 -8 33 -16 45 -29 45 -10 0 -40 7 -66 16 -26 9
-49 14 -51 12 -3 -3 4 -47 15 -99 15 -66 27 -99 41 -111 19 -16 48 -18 274
-18 226 0 255 2 274 18 17 13 29 49 51 150 27 124 28 135 14 158 -21 31 -32
30 -80 -5z"/>
</g>
</svg>
