<?xml version="1.0" standalone="no"?>
<!DOCTYPE svg PUBLIC "-//W3C//DTD SVG 20010904//EN"
 "http://www.w3.org/TR/2001/REC-SVG-20010904/DTD/svg10.dtd">
<svg version="1.0" xmlns="http://www.w3.org/2000/svg"
 width="25px" height="25px" viewBox="0 0 512.000000 512.000000"
 preserveAspectRatio="xMidYMid meet">
<style type="text/css">
    <![CDATA[
    .red { fill: #b71c1c; }
    ]]>
  </style>
<g class="red" transform="translate(0.000000,512.000000) scale(0.100000,-0.100000)"
fill="#000000" stroke="none">
<path d="M749 4710 c-61 -11 -116 -40 -160 -87 -75 -79 -74 -69 -77 -453 -3
-365 -1 -390 43 -460 l24 -37 -185 -277 c-102 -152 -187 -290 -190 -305 -4
-17 1 -43 11 -65 20 -42 51 -61 195 -117 l95 -37 5 -1143 c6 -1259 1 -1163 73
-1303 77 -149 235 -272 398 -311 96 -22 3062 -22 3158 0 164 39 320 161 399
312 75 145 72 75 72 1333 l0 1126 88 28 c137 44 191 73 209 111 30 63 18 83
-207 353 l-210 252 33 29 c18 16 44 51 57 78 l25 48 0 365 c0 355 -1 366 -22
405 -30 55 -88 110 -148 137 l-50 23 -1795 1 c-987 1 -1816 -2 -1841 -6z
m3612 -223 c36 -28 39 -51 39 -346 l0 -290 -24 -28 -24 -28 -1792 0 -1792 0
-24 28 -24 28 0 290 c0 295 3 318 39 346 23 18 3579 18 3602 0z m74 -1131
c103 -124 186 -228 185 -233 -3 -10 -124 -47 -245 -74 -139 -32 -288 -49 -425
-49 -215 0 -354 32 -538 122 -94 47 -129 59 -151 55 -16 -4 -82 -28 -148 -56
-259 -108 -435 -146 -638 -138 -183 8 -327 49 -502 142 -112 59 -129 62 -205
30 -266 -112 -453 -154 -678 -155 -172 0 -369 27 -417 58 -12 7 -37 15 -55 16
-43 4 -149 38 -146 47 2 4 71 108 153 233 l150 226 1737 0 1736 0 187 -224z
m-2506 -452 c113 -55 250 -101 349 -117 39 -6 72 -15 72 -19 0 -4 -12 -27 -27
-52 l-27 -45 -297 -3 -297 -3 -27 -25 c-15 -14 -97 -142 -183 -285 -148 -245
-157 -263 -157 -310 1 -46 12 -68 154 -305 85 -140 164 -266 178 -280 l23 -25
303 -3 302 -3 145 -242 c97 -161 153 -246 170 -254 36 -18 684 -18 720 0 17 8
79 102 190 286 152 253 165 278 164 320 -1 41 -17 73 -137 273 -76 124 -137
231 -137 236 0 6 62 113 137 239 124 204 138 233 138 274 0 33 -7 57 -27 86
-25 38 -29 40 -90 46 -77 6 -149 30 -205 68 -24 15 -43 24 -43 19 0 -5 29 -55
65 -110 36 -55 65 -105 65 -111 0 -6 -52 -98 -116 -205 l-117 -194 -247 0
-247 0 -117 194 c-64 107 -116 200 -116 208 0 7 27 56 58 108 45 74 64 96 83
98 168 18 375 73 556 148 l82 34 68 -35 c92 -46 236 -92 352 -112 175 -30 467
-20 679 23 l32 7 -2 -1099 -3 -1099 -23 -55 c-46 -113 -129 -196 -242 -242
l-55 -23 -1515 0 -1515 0 -55 23 c-113 46 -196 129 -242 242 l-23 55 -3 1091
-2 1091 83 -12 c217 -33 430 -27 641 16 112 23 285 77 343 108 21 11 40 20 43
21 3 0 48 -21 99 -46z m484 -650 c64 -107 117 -201 117 -207 -1 -7 -54 -100
-118 -207 l-118 -195 -245 -3 -244 -2 -123 204 -122 204 121 201 120 201 247
0 247 0 118 -196z m923 -516 l121 -201 -121 -203 -121 -203 -245 -1 -245 0
-120 200 c-66 110 -119 204 -118 208 0 4 54 96 119 205 l119 197 245 0 245 0
121 -202z"/>
</g>
</svg>
